<?xml version="1.0" encoding="UTF-8"?>
<svg id="Layer_1" data-name="Layer 1" xmlns="http://www.w3.org/2000/svg" xmlns:xlink="http://www.w3.org/1999/xlink" viewBox="0 0 683.18 131.06">
  <defs>
    <style>
      .cls-1 {
        fill: #e51e3d;
      }

      .cls-1, .cls-2 {
        stroke-width: 0px;
      }

      .cls-2 {
        fill: #3c3d3d;
      }
    </style>
  </defs>
  <g id="type">
    <a xlink:href="76.1956862745098">
      <path id="type_PathItem_" data-name="type &amp;lt;PathItem&amp;gt;" class="cls-2" d="m542.16,32.75c-2.58.04-5.17.05-7.75,0-.74-.02-1.08.25-1.4.89-6.34,12.58-12.71,25.15-19.07,37.72-1.26,2.49-2.54,4.99-3.88,7.62-2.2-4.34-4.32-8.51-6.43-12.68-5.51-10.9-11.02-21.8-16.5-32.71-.3-.6-.64-.84-1.33-.83-2.62.05-5.25.04-7.86,0-.71-.01-.92.16-.92.9.02,19.92.02,39.83,0,59.75,0,.74.2.92.92.9,2.23-.05,4.46-.08,6.69,0,1.05.04,1.27-.27,1.27-1.28-.03-14.01-.03-28.01-.02-42.02,0-.39-.1-.81.16-1.27.15.26.25.41.34.58,7.29,14.33,14.6,28.65,21.86,43,.37.74.76,1.08,1.58.98.8-.09,1.55.19,2.1-.9,7.13-14.15,14.34-28.26,21.54-42.37.21-.41.33-.93.87-1.23v1.4c0,14.01,0,28.01-.02,42.02,0,.87.2,1.12,1.09,1.09,2.27-.07,4.54-.05,6.81,0,.73.01.9-.2.9-.91-.02-19.92-.02-39.83,0-59.75,0-.76-.24-.9-.93-.89Z"/>
    </a>
    <path id="type_CompoundPathItem_" data-name="type &amp;lt;CompoundPathItem&amp;gt;" class="cls-2" d="m352.49,32.77h-34.97c-5.04,0-8.89,3.88-8.89,8.93v43.65c0,5.07,3.85,8.93,8.88,8.93,11.66,0,23.32,0,34.98,0,5.05,0,8.89-3.86,8.89-8.92v-43.66c0-5.06-3.85-8.93-8.89-8.93Zm-1.09,52.65c-10.91-.03-21.82-.03-32.74,0-.98,0-1.21-.25-1.21-1.22.03-13.81.03-27.62,0-41.43,0-.96.23-1.24,1.21-1.23,10.91.03,21.83.03,32.74,0,.95,0,1.15.28,1.14,1.18-.03,6.92-.02,13.85-.02,20.78s-.02,13.85.02,20.77c0,.92-.24,1.15-1.16,1.15Z"/>
    <path id="type_CompoundPathItem_-2" data-name="type &amp;lt;CompoundPathItem&amp;gt;" class="cls-2" d="m604.28,32.77h-35.09c-4.97,0-8.83,3.87-8.83,8.84,0,7.32,0,14.63,0,21.95s0,14.63,0,21.94c0,4.91,3.87,8.77,8.78,8.78,11.73,0,23.47,0,35.21,0,4.84,0,8.71-3.88,8.71-8.72,0-14.67,0-29.34,0-44.01,0-4.91-3.87-8.77-8.78-8.78Zm0,51.58c0,.91-.26,1.07-1.11,1.07-10.95-.03-21.9-.03-32.85,0-1.03,0-1.2-.32-1.19-1.26.03-6.92.02-13.84.02-20.77s.02-13.69-.02-20.53c0-.97.15-1.33,1.25-1.33,10.91.04,21.82.04,32.73,0,.9,0,1.16.22,1.16,1.15-.03,13.88-.03,27.76,0,41.65Z"/>
    <path id="type_CompoundPathItem_-3" data-name="type &amp;lt;CompoundPathItem&amp;gt;" class="cls-2" d="m280.16,69.33c5.98-1.23,9.34-4.96,10.08-10.94.57-4.67.46-9.37.06-14.05-.23-2.72-1.17-5.26-3.04-7.36-2.75-3.09-6.41-4.15-10.34-4.19-11.38-.09-22.76-.03-34.15-.04-.68,0-.94.12-.94.88.02,19.91.02,39.83,0,59.74,0,.72.18.93.91.92,2.31-.04,4.62-.06,6.92,0,.89.03,1.09-.22,1.08-1.09-.03-7.43,0-14.87-.04-22.3,0-1.01.29-1.2,1.24-1.19,5.59.05,11.19.05,16.78,0,.93,0,1.35.28,1.74,1.12,3.45,7.52,6.94,15.01,10.44,22.51.18.38.19.94.86.94,3.08,0,6.15,0,9.38,0-3.88-8.33-7.69-16.52-11.55-24.82.25-.05.4-.09.56-.12Zm-5.8-8.44c-7.47.01-14.94,0-22.41.03-.95,0-1.25-.19-1.24-1.19.05-5.67.04-11.34,0-17.01,0-.9.19-1.19,1.14-1.17,4.07.05,8.14.02,12.2.02v.08c3.95,0,7.9-.1,11.84.03,3.85.13,5.45,1.6,5.7,5.41.21,3.03.29,6.1-.1,9.13-.35,2.73-1.84,4.16-4.58,4.51-.85.11-1.71.17-2.57.17Z"/>
    <path id="type_CompoundPathItem_-4" data-name="type &amp;lt;CompoundPathItem&amp;gt;" class="cls-2" d="m214.94,33.37c-1.52-.38-3.07-.6-4.64-.6-11.11,0-22.22.01-33.34-.03-1.01,0-1.19.29-1.18,1.23.03,9.86.02,19.72.02,29.58s0,19.8-.02,29.69c0,.8.16,1.07,1.01,1.05,2.19-.06,4.38-.07,6.57,0,.99.04,1.31-.18,1.3-1.25-.06-6.81,0-13.62-.05-20.42,0-.95.28-1.15,1.17-1.14,6.85.04,13.7.02,20.54.02,2.11,0,4.22,0,6.33-.21,6.17-.63,10.36-4.26,11.31-10.37.88-5.66.76-11.41.11-17.07-.62-5.42-3.67-9.11-9.14-10.49Zm.54,23.93c-.11,3.31-2.02,5.13-5.39,5.27-2.46.1-4.93.06-7.39.06-5.63,0-11.26-.03-16.89.02-1.01,0-1.21-.3-1.2-1.25.04-6.21.04-12.43,0-18.65,0-1.01.32-1.21,1.26-1.2,4.03.05,8.06.02,12.08.02v.08c4.07,0,8.13-.08,12.19.02,3.32.09,5.19,1.89,5.33,5.18.14,3.48.13,6.96,0,10.44Z"/>
    <a xlink:href="76.1956862745098">
      <path id="type_PathItem_-2" data-name="type &amp;lt;PathItem&amp;gt;" class="cls-2" d="m412.46,64.21c-.52-.72-.53-1.16,0-1.89,6.75-9.39,13.47-18.81,20.19-28.22.27-.39.68-.73.74-1.32-3.16,0-6.24.03-9.33-.02-.87-.02-1.4.24-1.91.97-4.98,7.01-10.02,13.98-14.99,21-.71,1-.95.78-1.54-.05-4.63-6.54-9.36-13.01-13.9-19.61-1.19-1.72-2.39-2.53-4.53-2.34-2.54.22-5.11.05-7.84.05.34.49.56.8.78,1.11,6.79,9.51,13.57,19.02,20.39,28.51.46.65.5,1.06.02,1.71-3.04,4.17-6.04,8.37-9.05,12.56-4.17,5.81-8.34,11.61-12.64,17.61,3.34,0,6.46-.03,9.59.02.83.01,1.32-.22,1.81-.91,5.13-7.24,10.3-14.45,15.43-21.69.59-.84.83-.89,1.46-.02,5.22,7.32,10.48,14.61,15.71,21.92.35.5.71.72,1.34.69,1.41-.05,2.82-.01,4.23-.01h5.62c-.36-.53-.59-.88-.83-1.22-6.9-9.62-13.8-19.25-20.74-28.85Z"/>
    </a>
    <a xlink:href="76.1956862745098">
      <path id="type_PathItem_-3" data-name="type &amp;lt;PathItem&amp;gt;" class="cls-2" d="m458.53,32.74c-2.11.08-4.23.09-6.33,0-1.06-.04-1.26.28-1.26,1.29.04,17.64.03,35.28.03,52.92,0,2.15.03,4.31-.02,6.45-.02.74.2.92.92.9,2.23-.05,4.46-.07,6.68,0,1,.03,1.2-.27,1.2-1.22-.03-9.86-.02-19.72-.02-29.57s-.02-19.71.03-29.57c0-.99-.25-1.24-1.22-1.2Z"/>
    </a>
    <a xlink:href="63.5156862745098">
      <path id="type_PathItem_-4" data-name="type &amp;lt;PathItem&amp;gt;" class="cls-1" d="m678.87,32.66h-44.23c-2.38,0-4.31,1.93-4.31,4.31s1.93,4.31,4.31,4.31h39.92v17.89h-39.92c-2.38,0-4.31,1.93-4.31,4.31s1.93,4.31,4.31,4.31h39.92v17.89h-39.92c-2.38,0-4.31,1.93-4.31,4.31s1.93,4.31,4.31,4.31h44.23c2.38,0,4.31-1.93,4.31-4.31v-53.03c0-2.38-1.93-4.31-4.31-4.31Z"/>
    </a>
  </g>
  <path id="logoMark" class="cls-1" d="m135.56,23.77c0-.12.02-.23.02-.35-.05-2.31-1.48-4.37-3.64-5.22L86.69.39c-.88-.35-1.82-.44-2.74-.34-1.06-.15-2.18-.01-3.22.47L3.32,35.49c-2.88,1.34-4.12,4.75-2.79,7.63.97,2.09,3.05,3.32,5.21,3.32.81,0,1.63-.17,2.42-.54l29.69-13.41,44.04,16.85c.66.25,1.36.38,2.05.38.8,0,1.59-.17,2.34-.5l36.37-16.2v30.22l-34.73,14.47c-3.57,1.66-6.46,5.9-6.46,9.47s2.89,5.11,6.46,3.45l34.73-14.47v26.82l-34.73,14.47c-3.57,1.66-6.46,5.9-6.46,9.47s2.89,5.11,6.46,3.45l41.19-17.48c3.57-1.66,6.46-5.9,6.46-9.47V23.95c0-.07-.02-.12-.02-.18Zm-51.78,14l-30.69-11.75,31.63-14.06,30.27,11.91-31.2,13.9Z"/>
</svg>
