<svg xmlns="http://www.w3.org/2000/svg" viewBox="0 0 1832 2022"><path fill="#fff" d="M909.3 3.5c-3.2 1.7-10.7 5.8-16.7 9.1-6.1 3.3-13.5 7.4-16.5 9-3 1.7-10.2 5.5-15.9 8.6-5.7 3.1-10.5 5.8-10.7 6.1-.2.2-5.3 3.1-11.2 6.3-6 3.2-16 8.6-22.2 12-6.2 3.5-15.9 8.9-21.7 12-5.8 3.2-15.8 8.7-22.1 12.2-6.4 3.5-13.9 7.6-16.7 9.1-2.8 1.5-9.7 5.2-15.4 8.3-5.7 3.1-10.5 5.8-10.7 6.1-.2.2-5.3 3.1-11.2 6.3-6 3.2-16 8.6-22.2 12-6.2 3.5-16 8.9-21.9 12.1-5.9 3.3-11.7 6.4-12.8 7.1-1.1.6-6 3.3-10.9 6-4.9 2.6-11.3 6.2-14.4 7.8-3 1.7-10.2 5.5-15.9 8.6-5.7 3.1-10.5 5.8-10.7 6.1-.2.2-5.3 3.1-11.2 6.3-6 3.2-16 8.6-22.2 12-6.2 3.5-16.1 8.9-22 12.1-5.9 3.3-11.9 6.6-13.5 7.5-1.5.9-6.6 3.7-11.3 6.3-4.8 2.6-10.9 5.9-13.7 7.4-2.8 1.5-9.7 5.2-15.4 8.3-5.7 3.1-10.5 5.8-10.7 6.1-.2.2-5.3 3.1-11.2 6.3-6 3.2-16 8.6-22.2 12-6.2 3.5-16.1 8.9-22 12.1-5.9 3.3-11.9 6.6-13.5 7.5-1.5.9-6.6 3.7-11.3 6.3-4.8 2.6-11 5.9-13.7 7.4-2.8 1.5-9.7 5.2-15.4 8.3-5.7 3.1-10.5 5.8-10.7 6.1-.2.2-5.3 3.1-11.2 6.3-6 3.2-16 8.6-22.2 12-6.2 3.5-16.1 8.9-22 12.1-5.9 3.3-12.9 7.2-15.7 8.7-2.8 1.6-7.6 4.2-10.6 5.9-3.1 1.6-8.3 4.4-11.5 6.2-3.2 1.7-10.4 5.6-16.1 8.7-5.7 3.1-10.5 5.8-10.7 6.1-.2.2-5.3 3.1-11.2 6.3-6 3.2-16 8.6-22.2 12-6.2 3.5-16.1 8.9-22 12.1-5.9 3.3-11.9 6.6-13.5 7.5-1.5.9-6.6 3.7-11.3 6.3-4.8 2.5-10.7 5.8-13.2 7.1-2.4 1.3-9.4 5.1-15.3 8.3-6 3.2-11.1 6.1-11.3 6.4-.2.2-5.3 3.1-11.2 6.3-6 3.2-16 8.6-22.2 12-6.2 3.5-16 8.9-21.9 12.1-5.9 3.3-13 7.2-15.8 8.7-2.8 1.5-7.6 4.2-10.6 5.8-3.1 1.7-8 4.4-10.9 5.9-2.9 1.6-10.2 5.7-16.1 9-6 3.3-13.2 7.3-16 8.7l-5 2.7V1519c16.5 8.8 26.2 14.1 32.2 17.4 6 3.3 15.9 8.8 22.1 12.2 6.2 3.4 13.3 7.3 15.8 8.6 2.5 1.4 9.4 5.2 15.4 8.5 5.9 3.3 15.8 8.7 21.9 12.1 6.1 3.3 16.3 8.9 22.7 12.5 6.4 3.5 16.2 8.9 21.9 12 5.7 3.2 15.6 8.6 22 12.1 6.3 3.5 13.6 7.5 16.1 8.8 2.5 1.4 9.4 5.2 15.4 8.5 5.9 3.3 15.7 8.7 21.7 12 6 3.3 15.9 8.7 22.1 12.1 6.2 3.4 16.3 9 22.5 12.4 6.2 3.5 13 7.2 15 8.3 2.1 1.1 7.3 4 11.7 6.4 4.3 2.3 9.5 5.2 11.6 6.3 2 1.1 8.8 4.9 15 8.3 6.2 3.4 16.1 8.9 22.1 12.2 6 3.3 15.9 8.7 22.1 12.1 6.2 3.4 16.3 9 22.5 12.4 6.2 3.5 13 7.2 15 8.3 2.1 1.1 7.3 4 11.7 6.4 4.3 2.3 9.5 5.2 11.6 6.3 2 1.1 8.8 4.9 15 8.3 6.2 3.4 16.1 8.9 22.1 12.2 6 3.3 15.9 8.7 22.1 12.1 6.2 3.4 16.3 9 22.5 12.4 6.2 3.5 13 7.2 15 8.3 2.1 1.1 7.3 4 11.7 6.3 4.3 2.4 9.5 5.3 11.6 6.4 2 1.1 8.8 4.9 15 8.3 6.2 3.4 16.1 8.9 22.1 12.2 6 3.3 15.9 8.7 22.1 12.2 6.2 3.4 16.1 8.8 22.1 12.1 5.9 3.2 12.6 6.9 15 8.2 2.3 1.3 7.7 4.3 12.1 6.6 4.3 2.4 9.5 5.3 11.6 6.4 2 1.1 8.8 4.9 15 8.3 6.2 3.4 16.1 8.9 22.1 12.2 6 3.3 15.9 8.7 22.1 12.2 6.2 3.4 16.1 8.8 22.1 12.1 5.9 3.2 12.6 6.9 15 8.2 2.3 1.3 9.6 5.3 16.2 8.9 6.6 3.6 16.9 9.3 22.9 12.6 5.9 3.3 15.7 8.7 21.7 12 6 3.3 15.9 8.7 22.1 12.2 6.2 3.4 16.1 8.8 22.1 12.1 5.9 3.2 12.6 6.9 15 8.2 2.3 1.3 9.8 5.4 16.7 9.2 6.9 3.8 12.9 6.9 13.2 6.9.3 0 5.8-2.9 12.2-6.3 6.3-3.5 16.6-9.1 22.8-12.5 6.2-3.4 12.6-6.9 14.3-7.9 1.6-.9 6.9-3.8 11.6-6.3 4.7-2.6 10.7-5.9 13.1-7.2 2.5-1.4 9.2-5.1 15-8.3 5.8-3.1 15.6-8.5 21.8-11.9 6.2-3.5 16.1-8.9 22.1-12.2 6-3.3 15.9-8.8 22.1-12.2 6.2-3.4 12.6-6.9 14.3-7.9 1.6-.9 6.9-3.8 11.6-6.4 4.7-2.5 10.2-5.5 12.2-6.6 1.9-1.1 8.7-4.8 15-8.2 6.3-3.5 16.5-9.1 22.7-12.5 6.2-3.5 16.1-8.9 22.1-12.2 6-3.3 15.9-8.8 22.1-12.2 6.2-3.4 13.3-7.3 15.8-8.7 2.4-1.4 9.2-5.1 15-8.2 5.8-3.2 15.9-8.7 22.5-12.3 6.6-3.7 16.7-9.3 22.5-12.4 5.8-3.2 15.5-8.6 21.7-12 6.2-3.4 16.3-9 22.5-12.4 6.2-3.4 12.6-6.9 14.3-7.9 1.6-.9 6.9-3.8 11.6-6.4 4.7-2.5 10.2-5.5 12.2-6.6 1.9-1.1 8.7-4.8 15-8.2 6.3-3.5 16.5-9.1 22.7-12.5 6.2-3.5 16.1-8.9 22.1-12.2 6-3.3 15.9-8.8 22.1-12.2 6.2-3.4 13-7.1 15-8.3 2.1-1.1 9-4.9 15.4-8.4s16.7-9.2 22.9-12.6c6.2-3.3 16.3-8.9 22.5-12.3 6.2-3.5 16.1-8.9 22.1-12.2 6-3.3 15.9-8.8 22.1-12.2 6.2-3.4 13.2-7.2 15.5-8.5 2.3-1.3 9.1-5 15-8.2 5.9-3.3 15.9-8.8 22.2-12.2 6.3-3.5 16.6-9.2 22.9-12.7 6.3-3.4 16.3-8.9 22.3-12.2 6-3.3 15.9-8.8 22.1-12.2 6.2-3.4 13.2-7.2 15.5-8.5 2.3-1.3 9.1-5 15-8.2 5.9-3.3 15.8-8.7 22-12.1 6.2-3.5 16.5-9.1 22.9-12.7 6.4-3.5 16.5-9 22.5-12.3 6-3.3 15.9-8.8 22.1-12.2 6.2-3.4 13.2-7.2 15.5-8.5 2.3-1.3 9.2-5 15.2-8.2l11-5.8V503.5c-7.9-4.1-11.5-6.1-13.2-7-1.6-1-7.9-4.4-13.8-7.6-6-3.2-12.1-6.6-13.5-7.5-1.5-.9-7.4-4.1-13.2-7.1-5.7-3.1-10.6-5.8-10.8-6-.3-.3-5.2-3-10.9-6-5.8-3.1-10.7-5.8-10.9-6-.2-.3-5-3-10.7-6.1-5.7-3.1-12.9-7-16.1-8.7-3.2-1.8-8.4-4.6-11.4-6.3-3.1-1.6-7-3.8-8.7-4.7-1.6-1-8.7-4.9-15.7-8.7-7-3.9-17.8-9.7-24-13-6.2-3.4-11.4-6.3-11.6-6.6-.3-.2-5.2-2.9-10.9-6-5.8-3-10.7-5.7-10.9-6-.2-.2-5-2.9-10.7-6-5.7-3.1-12.9-7-16.1-8.7-3.2-1.8-8.4-4.6-11.4-6.3-3.1-1.6-7-3.8-8.7-4.7-1.6-1-8.7-4.9-15.7-8.7-7-3.9-17.8-9.7-24-13-6.2-3.4-11.4-6.3-11.6-6.6-.3-.2-5.2-2.9-10.9-6-5.8-3-10.7-5.7-10.9-6-.2-.2-5-2.9-10.7-6-5.7-3.1-13-7-16.2-8.7-3.1-1.8-8.3-4.6-11.3-6.3-3.1-1.6-7.4-3.9-9.4-5.1-2.1-1.1-9.2-5.1-15.8-8.7-6.6-3.6-17-9.3-23.2-12.6-6.2-3.4-11.4-6.3-11.6-6.6-.3-.2-5.1-2.9-10.9-6-5.8-3-10.7-5.7-10.9-6-.2-.2-5-2.9-10.7-6-5.7-3.1-13-7-16.2-8.7-3.1-1.8-8.3-4.6-11.3-6.3-3.1-1.6-7.7-4.1-10.2-5.5-2.4-1.3-9.5-5.3-15.7-8.7-6.2-3.4-16.3-8.9-22.5-12.2-6.2-3.4-11.4-6.3-11.6-6.6-.3-.2-5.1-2.9-10.9-6-5.8-3-10.7-5.7-10.9-6-.2-.2-5-2.9-10.7-6-5.7-3.1-13-7-16.2-8.7-3.1-1.8-8.3-4.6-11.3-6.3-3.1-1.6-7.7-4.1-10.2-5.5-2.4-1.3-9.5-5.3-15.7-8.7-6.2-3.4-16.3-8.9-22.5-12.2-6.2-3.4-11.4-6.3-11.6-6.6-.3-.2-5.1-2.9-10.9-6-5.8-3-10.7-5.7-10.9-6-.2-.2-5-2.9-10.7-6-5.7-3.1-13-7-16.2-8.7-3.1-1.8-8.3-4.6-11.3-6.3-3.1-1.6-7.7-4.1-10.2-5.5-2.4-1.3-9.5-5.3-15.7-8.7-6.2-3.4-16.3-9-22.5-12.4-6.2-3.4-16.2-8.8-22.1-12-6-3.2-11.1-6.1-11.3-6.3-.2-.3-5-3-10.7-6.1-5.7-3.1-13-7-16.2-8.7-3.1-1.8-8.3-4.6-11.3-6.3-3.1-1.6-7.7-4.1-10.2-5.5-2.4-1.3-9.5-5.3-15.7-8.7-6.2-3.4-16.3-9-22.3-12.3-6.1-3.3-13.7-7.5-16.9-9.2-3.2-1.8-6.3-3.2-6.9-3.2-.7 0-3.8 1.4-7 3.2z"/><path fill="#e61873" d="M913.2 50.7c-1.5.8-7.7 4.3-13.9 7.7-6.2 3.4-16.3 8.9-22.5 12.4-6.2 3.4-18 9.9-26.2 14.4-8.3 4.6-25.2 13.8-37.5 20.6-12.4 6.8-27.6 15.2-33.8 18.6-6.2 3.4-16.3 9-22.5 12.4-6.2 3.4-18 9.9-26.2 14.4-8.3 4.6-25.2 13.8-37.5 20.6-12.4 6.8-27.6 15.2-33.8 18.6-6.2 3.4-16.3 9-22.5 12.4-6.2 3.4-18 9.9-26.2 14.4-8.3 4.6-25.2 13.9-37.5 20.7-12.4 6.8-27.6 15.1-33.8 18.5-6.2 3.4-18 9.9-26.2 14.4-8.3 4.6-19.9 11-25.9 14.3-6 3.3-19.6 10.8-30.4 16.7-10.7 5.9-21 11.5-22.8 12.6-1.9 1-8.5 4.6-14.7 8-6.2 3.4-18 9.9-26.2 14.4-8.3 4.6-20.1 11.1-26.3 14.5-6.2 3.4-21.3 11.8-33.7 18.6-12.4 6.8-27.7 15.2-34.1 18.7-6.4 3.5-13.2 7.2-15 8.3-1.9 1-8.5 4.6-14.7 8-6.2 3.4-16.3 9-22.5 12.4-6.2 3.4-21.3 11.8-33.7 18.6-12.4 6.8-27.7 15.2-34.1 18.7-6.4 3.5-13.2 7.2-15 8.3-1.9 1-8.5 4.6-14.7 8-6.1 3.4-16.1 8.9-22.1 12.2-6 3.3-19.6 10.8-30.4 16.7-10.7 5.9-22.3 12.3-25.8 14.2-3.5 2-10.6 5.9-15.8 8.7-5.1 2.8-10.1 5.5-11 6.1l-1.7 1v963c18.9 10.3 32.8 18 43.2 23.7 10.3 5.6 23.8 13.1 30 16.4 6.1 3.4 23 12.7 37.5 20.6 14.4 8 27.9 15.4 30 16.6 2 1.1 12.1 6.7 22.5 12.4 10.3 5.6 23.8 13 30 16.4 6.2 3.4 23 12.7 37.5 20.6 14.4 8 27.9 15.4 30 16.6 2 1.1 12.2 6.7 22.5 12.4 10.3 5.6 23.8 13 30 16.4 6.2 3.4 23 12.7 37.5 20.6 14.4 8 27.9 15.4 30 16.6 2 1.1 12.2 6.7 22.5 12.3 10.3 5.7 23.8 13.1 30 16.5 6.2 3.4 23 12.7 37.5 20.6 14.4 8 27.9 15.4 30 16.6 2 1.1 12.2 6.7 22.5 12.3 10.3 5.7 23.8 13.1 30 16.5 6.2 3.4 22.9 12.6 37.1 20.4 14.2 7.8 27.7 15.3 30 16.5 2.3 1.3 12.6 7 22.9 12.6 10.3 5.7 23.8 13.1 30 16.5 6.2 3.4 22.9 12.6 37.1 20.4 14.2 7.8 27.7 15.3 30 16.5 2.3 1.3 12.6 7 22.9 12.6 10.3 5.7 23.8 13.1 30 16.5 6.2 3.4 16.3 8.9 22.5 12.4 6.2 3.4 18 9.9 26.2 14.4 8.3 4.5 18.7 10.2 23.1 12.7 4.4 2.4 8.5 4.3 9 4.3s5.7-2.6 11.4-5.9c5.8-3.2 17.8-9.8 26.7-14.7 8.8-4.9 25.7-14.1 37.5-20.6 11.7-6.5 29.9-16.5 40.5-22.3 10.5-5.8 27.9-15.3 38.6-21.2 10.7-5.9 29.1-16 40.9-22.5 11.7-6.5 29.9-16.5 40.5-22.3 10.5-5.8 27.9-15.3 38.6-21.2 10.7-5.9 29.1-16.1 40.9-22.5 11.7-6.5 29.9-16.5 40.4-22.3 10.6-5.8 27.9-15.3 38.7-21.2 10.7-5.9 29.1-16.1 40.8-22.5 11.8-6.5 30-16.5 40.5-22.3 10.6-5.8 27.4-15.1 37.5-20.6 10.2-5.6 27.2-15 37.9-20.9 10.7-5.9 29.5-16.2 41.6-22.9 12.2-6.6 30.9-16.9 41.7-22.8 10.7-5.9 29.1-16.1 40.8-22.6 11.8-6.4 30-16.5 40.5-22.2 10.6-5.8 27.9-15.4 38.7-21.3 10.7-5.9 27.7-15.2 37.8-20.8 10.1-5.6 28.5-15.7 40.9-22.5 12.4-6.8 26.5-14.5 31.3-17.1l8.8-4.8-.4-963.2c-16.9-9.3-25-13.8-28.9-15.9-3.9-2.2-14-7.8-22.5-12.4-8.4-4.6-20.4-11.2-26.6-14.6-6.2-3.5-19.7-10.9-30-16.6-10.3-5.6-23.8-13-30-16.4-6.2-3.4-19.7-10.8-30-16.5-10.3-5.7-23.8-13.1-30-16.5-6.2-3.4-19.7-10.9-30-16.6-10.3-5.6-23.8-13-30-16.4-6.2-3.4-16.3-9-22.5-12.4-6.2-3.4-16.5-9.1-22.9-12.6-6.4-3.5-16.5-9.1-22.5-12.3-6-3.3-17.6-9.7-25.9-14.3-8.2-4.5-20-11-26.2-14.4-6.2-3.4-14.3-7.8-18-9.9-3.7-2.1-17.2-9.5-30-16.5-12.8-7.1-31.7-17.5-42-23.1-10.3-5.7-23.8-13.1-30-16.5-6.2-3.4-14.3-7.8-18-9.9-3.7-2.1-17.4-9.6-30.4-16.7-13-7.2-30.4-16.7-38.6-21.2-8.3-4.6-19.9-11-25.9-14.3-6-3.3-15.9-8.8-22.1-12.2-6.2-3.4-21.1-11.5-33-18.1-12-6.6-29-16-37.9-20.8-8.9-4.9-21-11.6-27-14.9-6-3.3-15.9-8.7-22.1-12.2-6.2-3.4-21.2-11.6-33.4-18.3-12.2-6.7-27.7-15.2-34.5-19-6.8-3.7-18.3-10-25.5-14-7.2-4-16.4-8.9-20.3-11l-7.1-3.8z"/><path fill="#29235c" d="M916.3 88.8c.2 0 2 .9 4.1 2.1 2 1.1 12.8 7.1 24 13.2 11.1 6.1 30 16.5 42 23.1 11.9 6.6 27 14.9 33.4 18.4 6.3 3.5 16.3 9 22.1 12.1 5.8 3.2 17.7 9.8 26.6 14.7 8.9 4.9 25.9 14.2 37.9 20.8 11.9 6.6 26.8 14.8 33 18.2 6.2 3.4 18.1 10 26.6 14.6s20.4 11.2 26.6 14.6c6.2 3.5 21.1 11.6 33 18.2 12 6.6 25.7 14.1 30.4 16.7 4.7 2.6 13.3 7.3 19.1 10.5 5.8 3.2 19 10.4 29.3 16.1 10.3 5.7 30.7 16.9 45.4 24.9 14.6 8.1 29.8 16.4 33.7 18.6 3.9 2.2 12 6.7 18 9.9 6 3.3 18.1 10 27 14.9 8.9 4.9 25.7 14.1 37.5 20.6 11.8 6.5 25.3 13.9 30 16.5 4.7 2.6 13.4 7.3 19.1 10.5 5.8 3.2 19 10.4 29.3 16.1 10.3 5.7 30.7 16.9 45.4 25 14.6 8 31.8 17.5 38.2 21 6.4 3.5 14.5 7.9 18 9.9s13.5 7.4 22.1 12.2c8.7 4.8 24.2 13.3 34.5 19 10.3 5.6 23.7 13 29.7 16.3 5.9 3.3 13.6 7.4 23.2 12.5l.1 601.1-3.6-3.3c-2-1.8-20.7-19.9-41.5-40.1-20.8-20.2-44.8-43.6-53.2-51.8-8.5-8.3-32.6-31.8-53.7-52.1-21-20.4-45.1-43.9-53.6-52.2-8.5-8.2-32.4-31.5-53.2-51.7-20.9-20.2-45-43.7-53.7-52.1-8.6-8.5-32.9-32.2-54-52.5-21-20.4-45.1-43.9-53.6-52.2-8.5-8.3-32.2-31.4-52.8-51.4-20.7-20-47.7-46.2-60-58.3-13.3-12.9-23-21.8-23.7-21.7-.6.1-6.7 3.3-13.5 7.1-6.8 3.7-20.8 11.4-31.1 17.1-10.3 5.7-23.8 13.1-30 16.5-6.2 3.4-16.3 8.9-22.5 12.3-6.2 3.4-13 7.2-15 8.3-2.1 1.1-8.7 4.8-14.6 8.1-6 3.2-12.8 7-15 8.2-2.3 1.3-12.6 6.9-22.9 12.6-10.3 5.7-23.8 13.1-30 16.5-6.2 3.4-16.3 8.9-22.5 12.3-6.2 3.4-13 7.2-15 8.3-2.1 1.1-8.7 4.8-14.6 8.1-6 3.2-12.8 7-15 8.2-2.3 1.3-12.6 6.9-22.9 12.6-10.3 5.7-23.8 13.1-30 16.5-6.2 3.4-18 9.9-26.3 14.4-8.2 4.5-19.9 10.9-25.8 14.2-6 3.3-12.8 7.1-15 8.3-2.3 1.3-12.6 6.9-22.9 12.6-10.3 5.7-37.2 20.4-59.6 32.8-22.5 12.3-49.5 27.2-60 33-10.6 5.8-36 19.8-56.7 31.1-20.6 11.4-47.4 26.1-59.6 32.8-12.2 6.7-39.2 21.6-60 33-20.8 11.5-47.8 26.3-60 33-12.2 6.7-39.2 21.6-60 33-20.8 11.5-47.8 26.3-60 33-12.2 6.7-45.9 25.3-75 41.3-29.1 15.9-57.6 31.6-63.4 34.8-5.7 3.2-31.1 17.2-56.4 31.1-25.3 13.8-46.1 25.2-46.3 25.2-.2 0-.4-152.6-.4-678l17.4-9.5c9.6-5.2 22.2-12.1 28-15.3 5.8-3.1 32.4-17.8 59.2-32.6 26.8-14.7 53.8-29.6 60-33 6.2-3.4 33.2-18.2 60-33 26.8-14.7 53.8-29.6 60-33 6.2-3.4 33.2-18.2 60-33 26.8-14.7 53.8-29.6 60-33 6.2-3.4 22.9-12.5 37.2-20.4 14.2-7.8 27.7-15.3 30-16.5 2.2-1.3 12.5-6.9 22.8-12.6 10.3-5.7 23.8-13.1 30-16.5 6.2-3.4 33.2-18.2 60-33 26.8-14.7 53.8-29.6 60-33 6.2-3.4 33.2-18.2 60-33 26.8-14.7 50.1-27.5 51.8-28.5 1.6-.9 18.8-10.4 38.2-21 19.4-10.7 37.3-20.5 39.8-21.9 2.4-1.3 4.6-2.4 4.9-2.4zm274.6 664.5c.3-.1 1.7.7 3 1.7 1.4 1 11.8 8.3 23.1 16.4 11.3 8 26.4 18.6 33.4 23.6s23.4 16.6 36.4 25.8c12.9 9.2 40.8 28.9 61.8 43.8 21.1 14.9 51.8 36.7 68.3 48.4 16.5 11.7 43.3 30.7 59.6 42.3 16.3 11.5 33.7 23.8 38.6 27.3 5 3.5 17 12 26.7 18.9 9.6 6.9 28.2 20 41.2 29.3 13 9.2 32.9 23.3 44.3 31.3 11.3 8.1 24.5 17.4 29.2 20.8 4.7 3.3 18.4 13 30.4 21.5 11.9 8.4 32.2 22.8 68.2 48.4l.4 319.3-12.2 6.7c-6.7 3.7-16.9 9.3-22.7 12.5-5.7 3.1-18.9 10.4-29.2 16-10.3 5.7-20.5 11.3-22.5 12.4-2.1 1.2-15.6 8.6-30 16.6-14.5 7.9-31.3 17.2-37.5 20.6-6.2 3.4-33.2 18.2-60 33-26.8 14.7-53.8 29.6-60 33-6.2 3.4-33.2 18.2-60 33-26.8 14.7-53.8 29.6-60 33-6.2 3.3-19.7 10.8-30 16.4-10.3 5.7-20.5 11.3-22.5 12.4-2.1 1.2-15.6 8.6-30 16.6-14.5 7.9-31.3 17.2-37.5 20.6-6.2 3.4-19.7 10.8-30 16.4-10.3 5.7-30.8 16.9-45.4 25-14.6 8-29.8 16.4-33.7 18.6-4 2.2-13.9 7.6-22.2 12.2-8.2 4.5-32 17.6-52.8 29-20.9 11.4-41.1 22.6-45 24.8-4 2.2-10.7 5.9-15 8.2-4.4 2.4-19.6 10.8-33.8 18.6-14.2 7.8-30.7 16.9-47.2 26l-15.2-8.3c-8.4-4.6-17.1-9.4-19.3-10.6-2.3-1.3-12.4-6.8-22.5-12.4-10.2-5.6-23.7-13-30-16.5-6.4-3.5-14.9-8.1-18.8-10.3-3.9-2.2-25.7-14.2-48.4-26.6-22.7-12.5-46.5-25.6-52.8-29.1-6.4-3.4-14.9-8.1-18.8-10.3-3.9-2.2-15.6-8.6-25.9-14.3-10.3-5.6-20.6-11.3-22.8-12.5-2.3-1.3-12.4-6.8-22.5-12.4-10.2-5.6-23.5-12.9-29.7-16.3-6.2-3.4-16.3-8.9-22.5-12.4-6.2-3.4-18-9.9-26.2-14.4-8.3-4.6-16.9-9.3-19.1-10.5-2.3-1.3-12.4-6.8-22.5-12.4-10.2-5.6-23.7-13-30-16.5-6.4-3.5-14.9-8.1-18.8-10.3-3.9-2.2-15.6-8.6-25.9-14.3-10.3-5.6-20.6-11.3-22.8-12.5-2.3-1.3-12.4-6.8-22.5-12.4-10.2-5.6-25.2-13.8-33.4-18.4-8.3-4.5-20.1-11-26.3-14.4-6.2-3.4-16.3-8.9-22.5-12.3-6.2-3.5-13.1-7.3-15.3-8.5-2.3-1.3-12.4-6.8-22.5-12.4-10.2-5.6-25.2-13.8-33.4-18.4-8.3-4.5-20.3-11.1-26.6-14.6-6.4-3.5-16.1-8.8-31.5-17l1.6-1.6c1-.9 29.7-22.6 64-48.3 34.2-25.7 83.8-63 110.2-82.9 26.4-19.8 74-55.6 105.8-79.5 31.7-23.9 78.6-59.1 104.2-78.4 25.6-19.2 73.2-55 105.8-79.4 32.6-24.5 80.2-60.3 105.7-79.6 25.6-19.2 73.9-55.5 107.3-80.6 33.4-25.1 82.3-61.9 108.7-81.7 26.4-19.9 76.5-57.6 111.4-83.8 34.9-26.2 71.1-53.4 80.6-60.5 9.4-7.1 17.4-12.9 17.8-12.9z"/><path fill="#fff" d="M1188.1 617.4c-5.8 3.2-19.6 10.8-30.7 17-11.2 6.1-30.2 16.6-42.4 23.2-12.2 6.7-30.9 17-41.6 22.9-10.7 5.9-27.8 15.3-37.9 20.9-10.1 5.5-28.3 15.6-40.5 22.2-12.2 6.7-30.4 16.7-40.5 22.3-10.1 5.6-27.2 14.9-37.9 20.8s-29.4 16.2-41.6 22.9c-12.2 6.7-30.4 16.7-40.5 22.3-10.1 5.6-27.2 14.9-37.9 20.8s-29.4 16.2-41.6 22.9c-12.2 6.7-30.9 17-41.6 22.9-10.7 5.9-27.7 15.2-37.7 20.7-10 5.5-26.6 14.6-36.8 20.2-10.2 5.7-20.4 11.3-22.6 12.5-2.3 1.3-10.8 5.9-18.8 10.4-8 4.4-19.7 10.8-25.9 14.2-6.2 3.4-16.3 9-22.5 12.4-6.2 3.3-19.7 10.8-30 16.4-10.3 5.7-21.9 12.1-25.8 14.3-4 2.2-14.3 7.8-22.9 12.6-8.7 4.7-24.2 13.3-34.5 18.9-10.3 5.7-27 14.9-37.1 20.5-10.2 5.5-23.1 12.7-28.9 15.9-5.8 3.2-16.3 8.9-23.3 12.8-7 3.8-19 10.4-26.6 14.6-7.6 4.2-19.1 10.5-25.5 14-6.4 3.5-21.4 11.8-33.4 18.4-11.9 6.6-34.2 18.8-49.5 27.2-15.2 8.4-32.4 17.8-38.2 21-5.8 3.2-20.3 11.2-32.3 17.8-11.9 6.6-30.8 17-42 23.1-11.1 6-20.6 11.4-21.2 11.9-.7.6-.8 24.2-.7 111.6l.2 110.8c30.8-20.2 43.4-28.5 48-31.5 4.5-2.9 22.6-14.7 40.1-26.2s50.9-33.3 74.1-48.5c23.2-15.2 46.1-30.2 51-33.4 4.8-3.2 13.1-8.6 18.3-12 5.3-3.4 28.2-18.4 50.9-33.2 22.6-14.9 45.1-29.6 49.8-32.6 4.7-3.1 19.4-12.8 32.7-21.4 13.2-8.7 27.9-18.4 32.8-21.5 4.8-3.2 12.5-8.2 17-11.2 4.6-2.9 18.6-12 31.2-20.3 12.5-8.2 28.1-18.4 34.5-22.6 6.3-4.2 19.3-12.7 28.8-18.9 9.5-6.2 22-14.4 27.8-18.2 5.8-3.8 14.9-9.7 20.2-13.2 5.4-3.5 18.2-11.9 28.5-18.6 10.3-6.8 33.7-22.1 52.1-34.2 18.4-12 37.6-24.6 42.8-28 5.2-3.3 13.3-8.7 18.2-11.8 4.8-3.2 19.6-12.9 32.8-21.5 13.2-8.7 28-18.4 32.8-21.5 4.9-3.2 12.5-8.2 17.1-11.2 4.5-2.9 23.1-15.1 41.2-27 18.2-11.9 36.7-24 41.3-26.9 4.5-3 22.6-14.8 40.1-26.3s46.5-30.5 64.3-42.1c17.9-11.7 36.4-23.9 41.3-27 4.8-3.2 13-8.5 18.2-11.9 5.1-3.4 26.3-17.2 47-30.8l37.7-24.7c21.2 16 39.5 29.9 54.4 41.3 14.8 11.3 39.1 29.8 54 41.1 14.8 11.3 42.8 32.6 62.1 47.3 19.3 14.6 41.9 31.9 50.2 38.2 8.4 6.3 18.9 14.3 23.4 17.8 4.6 3.4 14.3 10.9 21.8 16.5 7.4 5.7 18.2 13.9 24 18.3 5.7 4.4 25.5 19.4 43.9 33.4 18.3 13.9 39.6 30.1 47.2 36 7.6 5.8 23.2 17.6 34.5 26.2 11.3 8.6 33.3 25.3 48.8 37.1 15.4 11.8 31.4 24 35.5 27.1 4 3 12.5 9.5 18.7 14.2 6.3 4.8 19.2 14.7 28.8 22 9.6 7.3 17.6 13.2 17.8 13.1.3-.1-11.1-11.5-25.3-25.4-14.1-13.8-37.7-36.7-52.3-51-14.6-14.2-33.7-32.7-42.4-41.2-8.6-8.5-27.5-26.9-42-40.9-14.4-14-31.8-30.9-38.6-37.5-6.8-6.6-24.2-23.5-38.6-37.5-14.5-14-32.2-31.2-39.4-38.2-7.2-7-19.4-18.8-27-26.3-7.6-7.4-20.8-20.2-29.2-28.5-8.5-8.2-27.2-26.5-41.7-40.5-14.4-14-32-31-39-37.8-7-6.8-18.6-18.1-25.8-25.2-7.3-7-24.8-24.1-39-37.9-14.3-13.7-32-30.9-39.4-38.2-7.5-7.2-18.4-18-24.4-23.8-6-5.9-11.2-10.7-11.6-10.7-.4 0-5.5 2.7-11.3 5.9z"/><path fill="#e61873" d="M1032.5 398.1c-3.1 1.7-18.4 10.1-34.1 18.7-15.7 8.6-33.2 18.3-39 21.5-5.8 3.2-11.8 6.4-13.4 7.2-1.5.8-2.8 1.7-2.8 2.1.1.4 3.4 6.9 7.5 14.3s8.2 14.9 9.2 16.7c.9 1.7 2.1 3.1 2.5 3.1.4 0 3.4-2.6 6.7-5.8 3.3-3.2 9.2-7.9 13-10.5 3.8-2.5 7.2-4.6 7.5-4.6.3 0 2.5 3.6 4.8 8 2.4 4.5 7.3 13.5 11 20.1 3.6 6.6 10.5 19.1 15.2 27.7 4.8 8.7 14.4 26.1 21.3 38.6 7 12.6 14.9 27.3 17.6 32.7 2.7 5.3 5.8 12.6 6.9 16.1 1.1 3.5 2.4 8.3 2.8 10.7.4 2.4 1.1 4.3 1.4 4.3.3 0 9.8-5.2 21.2-11.5 11.3-6.2 21.3-11.8 22.1-12.3 1.4-.8 1.3-1.1-2.4-4.8-2.1-2.2-5.4-6.1-7.4-8.5-2-2.5-5-6.7-6.7-9.4-1.7-2.7-6.2-10.4-9.9-17.3-3.8-6.8-10.5-19.1-15.1-27.3-4.5-8.3-16.6-30.4-27-49.2-10.3-18.7-19.1-34.8-19.5-35.8-.9-1.6-.6-1.8 5.3-4.6 3.4-1.6 8.9-3.7 12.2-4.7 3.3-1.1 7.9-2.4 10.3-3 2.4-.5 4.3-1.1 4.3-1.2 0-.1-2.5-4.6-5.5-10.1s-7.3-13.2-9.5-17.3c-2.3-4-4.3-7.3-4.5-7.2-.2 0-2.9 1.5-6 3.3zM892 475.2c-12.2 6.7-22.2 12.3-22.2 12.5 0 .3 2.3 3 5.2 6 2.9 3.1 7.1 8.2 9.3 11.3 2.2 3.1 7.7 12.2 12.1 20.2 4.4 8.1 11.9 21.6 16.5 30 4.6 8.5 14.1 25.7 21 38.3 6.9 12.6 16.4 30 21.1 38.6 4.7 8.7 9.4 18.1 10.5 21 1.1 2.9 2.9 8.7 3.9 13l2 7.6c17.4-9.6 27.6-15.3 33.9-18.8l11.5-6.3c-9.2-9.3-13.2-13.8-14.9-16.1-1.6-2.3-5.8-9.2-9.3-15.4-3.5-6.2-14.9-26.8-25.4-45.7-10.4-19-21.3-38.9-24.3-44.3-3-5.3-8.7-15.8-12.6-23.2-4-7.4-8.1-15.6-9.2-18.2-1-2.6-2.9-8.7-4.1-13.5-1.3-4.9-2.4-8.9-2.5-9-.1-.1-10.3 5.3-22.5 12zm-52.6 28.9c-3.3 1.8-15.1 8.4-26.3 14.5-11.1 6.1-20.5 11.2-20.9 11.3-.3.1 1.2 3.3 3.5 7 2.2 3.7 5.1 9.1 6.4 12 1.2 2.9 2.8 6.9 3.4 9 .7 2 4.4 16 8.3 31.1 3.9 15.1 9.7 37 12.8 48.7 3.1 11.8 5.6 21.8 5.7 22.2 0 .4-2.3-1.8-5.1-4.9-2.8-3.1-7.4-8.2-10.3-11.3-2.9-3-16.4-17.7-30-32.5-13.6-14.8-26.6-29.1-28.8-31.9-2.2-2.7-5.3-7.3-7-10.2-1.7-2.9-3.8-7-4.7-9.1l-1.5-4c-22.8 12.5-35 19.2-41.9 22.9-6.8 3.7-12.6 7.1-12.8 7.7-.3.5 1.4 2.8 3.8 5.2 2.3 2.4 6.2 7 8.7 10.3 2.4 3.3 5.6 8.1 7.1 10.5 1.4 2.5 6.4 11.4 11.1 19.9 4.6 8.5 15.3 28 23.8 43.5 8.4 15.5 20 36.6 25.7 46.9 5.7 10.3 11.6 21.8 13.3 25.5 1.6 3.7 3.7 9.8 4.7 13.5.9 3.7 1.9 7.7 2.2 8.8l.4 2c9-4.9 19.2-10.6 28.5-15.7s17-9.4 17.3-9.5c.2-.2-1.5-1.9-3.7-3.9-2.2-1.9-6.1-6-8.6-9.1-2.5-3.1-5.9-7.8-7.6-10.5-1.7-2.7-5.3-8.9-7.9-13.9-2.6-4.9-6.2-11.5-7.9-14.6-1.7-3.1-6.2-11.2-9.9-18-3.7-6.8-9.5-17.9-12.9-24.6-3.3-6.7-6-12.3-5.9-12.5.1-.2 3.1 3.4 6.7 8 3.6 4.7 10.3 13 15 18.6 4.6 5.6 15.4 18.2 23.9 28.1 8.4 9.9 16.8 19.7 18.4 21.8 1.7 2 4.6 5.9 6.4 8.6 1.8 2.7 4.2 7 5.3 9.6 1.2 2.5 2.3 4.6 2.5 4.6.2 0 1.8-.8 3.6-1.7 1.7-1 10.1-5.6 18.6-10.3 8.4-4.6 15.4-8.5 15.5-8.7.1-.1-.8-1.7-2-3.4-1.2-1.8-3.4-5.9-4.9-9.2-1.5-3.3-4.8-12.8-7.3-21-2.4-8.3-6.4-21.3-8.9-28.9-2.4-7.6-6-19.4-8.1-26.3-2-6.8-4.4-15-5.4-18.3-.9-3.3-1.8-6.5-2-7.2-.4-1-.3-1 .7 0 .6.7 4.2 6.6 7.9 13.2s9.7 17.4 13.3 24c3.6 6.6 9.4 16.9 12.8 22.8 3.4 6 7.8 14.1 9.6 18 1.9 4 4.4 10.2 5.6 13.9 1.2 3.7 2.4 8.4 2.7 10.3.2 2 .8 3.6 1.2 3.6.4 0 7.6-3.8 15.9-8.4 8.4-4.6 17.8-9.7 20.9-11.4 3.1-1.7 6.2-3.4 7-3.8 1.2-.7.7-1.4-4.5-6.8-3.3-3.3-8-9-10.5-12.7-2.6-3.7-11.2-18.8-19.2-33.4-8.1-14.6-17.6-32-21.2-38.6-3.6-6.6-9.1-16.6-12.2-22.2-3.1-5.5-9.8-17.7-14.9-27-5.1-9.2-10.6-20.5-12.4-25.1-1.7-4.5-3.6-11-4.1-14.4-.7-4-1.4-6.2-2-6.1-.5 0-3.6 1.6-6.9 3.5zM651.1 607.5c-7.8 4.3-19.8 10.9-26.6 14.7-6.8 3.7-12.5 6.8-12.6 7-.1.2 1.2 2.4 2.7 5 1.6 2.6 4 6.9 5.4 9.5 1.3 2.7 3 6.4 3.8 8.3.7 1.9 4.2 14.5 7.8 28.1 3.5 13.6 8.5 32.5 11 42s5.6 21.7 7 27c1.4 5.4 2.5 9.8 2.4 9.9-.1.1-3.2-3.1-6.9-7.1-3.7-4.1-11.8-12.9-18-19.7-6.3-6.8-18.9-20.5-28.2-30.6-9.2-10-18.6-20.5-20.8-23.2-2.2-2.8-5.5-7.6-7.3-10.7-1.8-3-3.9-7.1-4.6-9-.7-1.8-1.3-3.4-1.5-3.5-.1-.1-12.3 6.4-27 14.5-14.8 8.1-27.2 15-27.8 15.4-.6.5.7 2.3 4.9 6.9 3.2 3.4 7.4 8.4 9.3 11 1.9 2.7 5.9 9.3 8.9 14.6 3 5.4 8.3 14.8 11.6 21 3.4 6.2 14.2 26 24 43.9s20.9 38.2 24.7 45c3.8 6.8 8.4 15.7 10.2 19.9 1.8 4.1 4.1 11.1 5.2 15.5 1 4.5 2.2 8.1 2.5 8.1.3 0 7.7-3.9 16.5-8.7 8.8-4.8 18.9-10.4 22.5-12.4l6.6-3.7c-10.4-10.3-15.4-16.3-18.2-20.6-2.8-4.1-7.5-12.2-10.6-18-3-5.8-8.9-16.5-13-24-4.2-7.4-9.8-17.9-12.6-23.2-2.8-5.4-6.2-12.2-7.6-15.2-1.4-3-2.3-5.4-2-5.4.3 0 1.6 1.4 2.8 3.2 1.3 1.7 5.8 7.5 10.1 12.9 4.3 5.3 10.7 13.1 14.3 17.3 3.5 4.2 11.3 13.3 17.3 20.2 6 7 13.4 15.8 16.5 19.5 3.1 3.7 7.1 8.9 8.9 11.6 1.8 2.7 4.3 7 5.4 9.6 1.2 2.5 2.4 4.5 2.7 4.4.3-.2 4.5-2.4 9.2-5 4.7-2.6 12.3-6.7 16.9-9.2l9.9-5.5 1.7-1.1c-2.8-3.7-4.5-6.7-5.6-9-1.2-2.2-2.9-6.3-3.9-9-1.1-2.6-3.5-10.2-5.5-16.8-2-6.6-5.3-17.6-7.5-24.4-2.1-6.8-6-19.6-8.7-28.5-2.7-8.9-5.7-18.8-6.7-22.1-1.2-4.1-1.5-5.7-.8-4.9.6.6 4.4 7 8.5 14.2 4.1 7.3 10.7 19.1 14.7 26.3 3.9 7.2 9.4 17 12.1 21.7 2.8 4.8 6.5 11.7 8.3 15.4 1.7 3.7 4.2 9.6 5.4 13.1 1.3 3.6 2.7 8.5 3.3 11.1.6 2.6 1.2 4.7 1.4 4.7.2 0 2.7-1.3 5.6-2.9 2.9-1.6 12.9-7.1 22.2-12.1 9.2-5.1 16.9-9.3 17-9.3.1-.1-2.6-2.9-6-6.5-3.4-3.5-8.4-9.7-11.1-13.8-2.7-4.2-6.2-9.9-7.8-12.8-1.6-2.9-3.6-6.4-4.4-7.9-.8-1.4-4.7-8.7-8.8-16.1-4-7.4-10.1-18.5-13.5-24.7-3.4-6.2-10.5-19.2-15.9-28.9-5.3-9.7-12.5-22.7-15.9-28.9-3.4-6.2-7.3-13.4-8.7-16.1-1.3-2.7-3.4-7.6-4.6-10.9-1.3-3.3-2.9-8.8-3.6-12.4-.7-3.5-1.6-6.4-2-6.5-.3-.1-7 3.4-14.9 7.8zm-178.8 98c-3.1 1.8-11.4 6.4-18.4 10.2-7 3.9-13.9 7.6-15.2 8.4l-2.4 1.4c6.1 6.1 9.3 9.6 10.9 11.6 1.7 2.1 4.4 5.8 6.1 8.3 1.6 2.4 5.2 8.4 7.9 13.1 2.7 4.7 9.1 16.4 14.2 25.9 5.2 9.5 12.1 22.1 15.4 28.1 3.3 6 10.8 19.7 16.7 30.4 5.8 10.7 11.6 21.1 12.8 23 1.2 2 2.5 4.9 3 6.6q.7 3 0 6c-.5 1.7-1.9 4-3.2 5.4-1.4 1.3-3.6 2.8-4.9 3.3-1.4.6-3.6 1-5.1 1-1.4 0-3.7-.4-5-1-1.4-.5-3.2-1.8-4.1-2.8-.9-1-4.1-6.3-7.2-11.9-3.1-5.6-10.4-18.9-16.3-29.6-5.9-10.7-13.3-24.2-16.5-30-3.1-5.8-10.2-18.6-15.7-28.5-5.6-9.9-11.5-21.1-13.2-24.8-1.8-3.7-3.9-9.1-4.7-12-.9-2.9-2-7.3-2.5-9.7-.4-2.5-.9-4.8-1.1-5.1-.2-.3-5.1 2.1-11 5.4-5.9 3.3-16.1 9-22.8 12.6l-12.2 6.6c9.1 9.3 13.2 14 15.1 16.5 1.8 2.4 3.8 5.3 4.5 6.3.6 1.1 4.1 7.3 7.7 13.9 3.7 6.6 9.6 17.4 13.2 24 3.5 6.6 10.5 19.3 15.3 28.1 4.9 8.9 11.5 20.9 14.6 26.7 3.2 5.8 8.5 15.4 11.8 21.3 3.3 6 7.5 13.6 9.3 16.8 1.8 3.3 4.6 7.2 6.1 8.8 1.6 1.6 4.2 3.8 5.9 4.8 1.6 1.1 5.1 2.6 7.6 3.5 3.8 1.2 5.9 1.5 10.7 1.2 5.1-.3 6.9-.8 11.7-3.3 3-1.6 13.8-7.4 23.9-13 12.9-7.1 19.3-11.1 21.6-13.5 1.9-1.9 4.4-5.6 5.7-8.3 1.9-4 2.4-6 2.6-11.2.2-5 0-7.4-1.2-10.9-.8-2.4-4.1-9.2-7.3-15-3.2-5.8-9.7-17.6-14.4-26.2-4.8-8.7-11.4-20.8-14.8-27-3.4-6.2-7.3-13.3-8.7-15.8-1.3-2.4-6.1-11.2-10.6-19.5-4.6-8.2-10-18.2-12.2-22.1-2.2-3.9-5-9.2-6.2-11.6-1.3-2.5-3.3-7.1-4.5-10.2-1.3-3-2.8-7.9-3.5-10.8-.7-2.9-1.4-6-1.6-7-.2-.9-.8-1.6-1.3-1.6s-3.5 1.5-6.5 3.2zm-144 80.5c-2.3.6-7.7 3-12 5.3-4.4 2.3-10.8 5.7-14.3 7.6-3.5 1.8-8.5 4.7-11.2 6.4-2.6 1.7-6.1 4.6-7.8 6.4-1.6 1.9-3.6 4.8-4.4 6.4-.9 1.7-2.2 4.9-3 7.1-.8 2.3-1.6 6.5-1.8 9.4-.3 3.1-.1 7 .4 9.4.5 2.3 1.8 6.3 2.8 9 1.1 2.7 4.3 8.8 7 13.5 2.8 4.7 6.7 11.8 8.7 15.7 2.7 5.2 4.9 8.2 8.6 11.6 3.4 3.3 6.1 5.2 9.3 6.4 2.5.9 6.6 2.1 9 2.7 2.5.6 16.4 2.1 31 3.3 17.5 1.5 27.3 2.7 29.2 3.5 1.6.6 3.6 1.9 4.6 2.8.9.9 3.9 5.2 6.4 9.5 2.6 4.3 5.5 9.3 6.4 11.1.8 1.7 1.9 4.6 2.2 6.3.5 2.3.4 4.2-.3 6.6-.6 1.9-2 4.3-3.2 5.5-1.2 1.2-3.8 2.6-6.1 3.2-2.3.7-5.2 1-6.4.8-1.3-.3-3.6-1.4-5.3-2.6-1.6-1.2-4.5-4.5-6.4-7.3-2-2.9-4.7-7.6-6.2-10.5-1.4-2.9-3.3-7.5-4.2-10.3-.8-2.8-1.9-5.2-2.3-5.4-.4-.2-3.2.9-6.2 2.5s-11.1 6-18 9.8l-12.5 6.8c5.8 7.8 9.6 13.8 12.1 18.4 2.5 4.5 6.6 11.9 9.1 16.4 2.6 4.5 6.1 9.9 8 11.9 2.1 2.3 5.1 4.5 7.9 5.8 2.4 1.2 6.2 2.5 8.4 2.9 2.2.5 5.6.8 7.7.8 2.1 0 5.5-.3 7.7-.8s6.1-1.8 8.8-2.9c2.7-1.1 11.5-5.6 19.5-10.1 8-4.4 16-9 17.6-10.2 1.7-1.1 4.6-3.7 6.6-5.9 1.9-2.1 4.5-5.7 5.6-8.1 1.8-3.8 2-5.2 2-11.5-.1-5.3-.5-8.2-1.7-11.6-.9-2.4-6.5-13.4-12.3-24.3-5.9-10.9-12.4-22.4-14.4-25.5-2.6-3.9-5.1-6.6-7.9-8.5-2.3-1.6-6.3-3.5-9-4.3-3-.9-12.7-2.2-24.7-3.3-11-1.1-23.8-2.3-28.5-2.7-4.8-.5-9.9-1.1-11.5-1.5-1.5-.4-3.7-1.5-4.9-2.5-1.1-1-3.4-4.1-5.1-6.9-1.8-2.9-4.2-7.4-5.5-10.1-1.5-3.2-2.3-6-2.3-8.3 0-2.2.6-4.2 1.7-6 1-1.4 3.1-3.4 4.7-4.4 2.3-1.5 4-1.9 7.5-1.9 3.8 0 5 .3 7.9 2.4 1.8 1.3 4 3.3 4.9 4.5.9 1.1 2.6 4.1 3.8 6.6 1.3 2.4 3 6.8 3.9 9.5.9 2.8 1.9 5.1 2.4 5.1.4 0 6.2-3 12.9-6.8 6.7-3.7 14.6-8 17.6-9.5 3-1.6 5.4-3.1 5.4-3.4 0-.3-1.3-2.2-2.9-4.1-1.7-2-5.1-7.3-7.7-11.8-2.5-4.6-6-10.4-7.7-13.1-1.6-2.6-4.6-6.2-6.5-7.9-1.8-1.6-5.4-4.1-7.8-5.4-2.5-1.3-6.7-2.9-9.3-3.6-2.7-.6-7-1.1-9.4-1.1-2.5 0-6.4.5-8.6 1.2zm646.8 236.5c-3.3.3-8.8 1.2-12.3 1.8-3.6.7-8.6 1.8-11.3 2.6-2.7.8-8.1 2.7-12 4.2-3.9 1.6-9.3 4.1-12 5.5-2.7 1.5-7.9 4.7-11.6 7.2-4.2 2.8-10.5 8.2-16.6 14.3-7.1 7.1-11.3 12-15.2 18-3.1 4.6-7 11.3-8.8 15-1.7 3.7-4.4 10.3-5.8 14.6-1.5 4.4-3.2 10.5-3.8 13.5-.6 3.1-1.5 9.9-2 15-.7 7.2-.7 11.7 0 19.2.5 5.3 1.6 13.3 2.6 17.6 1 4.3 3 11.2 4.6 15.4 1.5 4.1 3.8 9.5 5 12 1.3 2.4 4 7.2 6 10.5 2.1 3.3 5.6 8.3 8 11.2 2.3 2.9 6.7 7.8 9.8 10.9 3.1 3.1 8.5 7.8 12.1 10.5 3.5 2.7 8.9 6.3 12 8.1 3 1.9 8.1 4.5 11.2 5.9 3.1 1.4 9.3 3.7 13.9 5.1 4.5 1.4 11.3 3.2 15 3.9 4.9 1 10.6 1.3 21 1.3 8.5 0 16.5-.3 19.9-.9 3-.6 9.3-2 13.8-3.3 4.6-1.2 11-3.4 14.3-4.8 3.3-1.4 8.8-4.2 12.2-6.1 3.4-2 6.1-3.8 6.1-4.1 0-.3-2.6-3.9-5.9-7.9-3.3-4-8.5-11.2-11.6-16-3.2-4.7-8.1-13.3-11-19.1-2.8-5.8-6.7-14.7-8.6-19.9-1.8-5.1-4.4-13.4-5.6-18.3-1.2-5-2.5-11.1-2.9-13.5-.5-2.5-1.2-7.7-1.6-11.7-.5-3.9-.8-12.8-.8-19.8-.1-7 .3-16.5.8-21 .5-4.6 1.7-12.3 2.7-17.3 1.1-4.9 2.5-11.2 3.3-13.9.7-2.6 2.5-8.2 4-12.3 1.4-4.2 4.1-10.7 5.8-14.7 1.8-3.9 3.8-8.2 4.6-9.5 1.3-2.3 1.3-2.5 0-3.1-.7-.3-4-1.3-7.3-2.2-3.3-.9-8.8-2.1-12.3-2.7-3.6-.6-10.3-1.3-15-1.5-4.8-.2-11.4-.1-14.7.3zm412.9.1c-2.7.3-7.4 1.1-10.5 1.8-3.1.6-7.9 1.8-10.7 2.6-2.8.8-5.1 1.8-5.1 2.1 0 .3 1.7 4.1 3.7 8.4 2 4.3 4.9 11.1 6.3 15 1.5 3.9 3.7 10.7 4.9 15 1.2 4.3 2.8 10.6 3.4 13.9.7 3.3 1.7 10.2 2.4 15.3.6 5.2 1.1 15.2 1.1 22.2s-.5 16.9-1.2 22.1c-.6 5.2-1.8 12.7-2.6 16.9-.9 4.1-2.7 11.3-4.1 15.9-1.4 4.7-4 11.9-5.7 16.1-1.7 4.3-4.8 11.3-7.1 15.6-2.2 4.3-5.9 10.9-8.2 14.6-2.3 3.7-6.1 9.3-8.4 12.4-2.3 3.1-5.8 7.6-7.8 9.9l-3.6 4.3c6.6 4 11.1 6.4 14.2 7.9 3.1 1.6 9 4 13.1 5.3 4.2 1.4 11.1 3.2 15.4 4.1 5.1 1.1 11.9 1.8 19.5 2 8.4.3 14.2.1 20.8-.8 5.1-.7 13.2-2.4 18-3.9 4.9-1.5 11.5-3.9 14.8-5.3 3.3-1.5 8.4-4 11.3-5.7 2.9-1.7 8.4-5.4 12.4-8.3 3.9-2.9 9.9-8.1 13.5-11.7 3.5-3.5 8.6-9.5 11.4-13.2 2.8-3.7 6.7-9.8 8.8-13.5 2-3.7 4.9-9.6 6.3-13.1 1.4-3.5 3.4-9.2 4.4-12.8 1.1-3.5 2.5-9.7 3.2-13.8.9-5.1 1.4-11.3 1.4-19.5 0-6.6-.4-14.6-1-17.7-.5-3-1.8-9-2.8-13.1-1-4.1-3.3-11-5.1-15.4-1.8-4.3-4.9-10.7-6.9-14.2s-6-9.6-9-13.5c-2.9-3.9-8.7-10.3-12.7-14.3-4.1-3.9-10.3-9.2-13.8-11.7-3.5-2.4-9.2-6-12.7-7.9-3.6-1.9-9.5-4.6-13.2-6.1-3.7-1.5-9.4-3.4-12.7-4.2-3.3-.9-9.1-2.1-12.8-2.8-3.7-.6-11.4-1.2-17.2-1.4-5.8-.1-12.7.1-15.4.5zm-49.2 95.9c0 3.9.1 5.4.3 3.4.1-2.1.1-5.3 0-7.2-.2-1.8-.3-.1-.3 3.8zm-150.3 146.1c2.7.1 6.7.1 9 0 2.3-.2.1-.3-4.9-.3-4.9 0-6.8.1-4.1.3zm-214.1 24.9c-3.3.4-7.9 1.1-10.1 1.5-2.3.5-8.1 2-13 3.4-4.8 1.4-11.9 4-15.7 5.7-3.9 1.7-9.2 4.5-11.8 6.1-2.7 1.7-7.6 5.1-10.9 7.7-3.3 2.5-8.8 7.6-12.2 11.1-3.4 3.6-8.7 9.8-11.6 13.8-3 4-7.9 11.4-10.9 16.3-2.9 5-7.9 14.3-11 20.6-3 6.4-7.4 16.4-9.6 22.2-2.3 5.8-5.3 14.2-6.8 18.7-1.5 4.6-3.9 12.7-5.3 18-1.5 5.4-4 15.7-5.7 22.9-1.6 7.2-4.3 21.2-6.1 31.1-2.1 11.8-3.2 20.3-3.3 24.8 0 6.3.1 6.9 2.2 10 1.6 2.2 3.6 3.9 6.4 5.2l4.1 2c108.5.3 127.7.2 128.3-.4.4-.4 2.6-10.3 5-21.9 2.3-11.7 5.6-26.7 7.3-33.6 1.7-6.8 4.5-16.9 6.1-22.5 1.6-5.5 4.7-15.5 7-22.1 2.2-6.6 6.2-17.4 8.9-24 2.7-6.6 7.3-16.9 10.3-22.9 3-5.9 7-13.5 8.9-16.8 1.8-3.3 5.6-9.4 8.4-13.5 2.8-4.2 7.1-10.2 9.6-13.5 2.6-3.3 7.8-9.5 11.6-13.8 5.3-6 6.7-8 6.1-8.8-.4-.6-3.8-3.3-7.5-5.9-3.7-2.7-10.6-6.9-15.3-9.3-4.8-2.5-12.2-5.7-16.5-7.1-4.4-1.5-11-3.2-14.7-3.9-3.7-.6-11.1-1.3-16.5-1.5-5.3-.1-12.4.1-15.7.4zm414.7 0c-3.3.4-8.5 1.2-11.6 1.8-3.1.7-8.8 2.2-12.7 3.5-4 1.3-10.9 4.1-15.4 6.4-4.6 2.2-11.3 6.2-15 8.9-3.7 2.7-7.1 5.3-7.4 5.8-.5.7 2.8 5.7 10.9 16.3 6.4 8.5 13.7 18.5 16.1 22.2 2.5 3.7 6.7 10.4 9.3 15 2.6 4.5 7.2 13.3 10.2 19.5 2.9 6.2 6.8 14.8 8.5 19.1 1.7 4.3 4.3 11.2 5.8 15.4 1.4 4.1 4.1 12.4 6 18.3 1.8 6 4.8 16.5 6.6 23.3 1.8 6.8 5.2 21.2 7.5 31.9s5 22.7 5.9 26.6l1.6 7.1h128.2c6.9-3.8 9-5.8 10.4-7.9 1.4-2.3 2.2-4.7 2.5-7.8.3-3.5-.2-7.5-2.3-17.7-1.6-7.2-3.6-17.3-4.7-22.5-1-5.1-3.2-15.2-4.8-22.5-1.6-7.2-4.2-17.6-5.6-23.2-1.5-5.6-4.2-14.8-6.1-20.6-1.9-5.8-5.1-14.6-7.2-19.5-2-5-5.9-13.2-8.5-18.4-2.7-5.2-6.5-11.9-8.4-15-1.9-3.1-6.3-9.5-9.8-14.3-3.5-4.7-9.4-11.7-13.2-15.6-3.7-3.9-10.3-9.7-14.6-13-4.4-3.3-12.1-8-17.3-10.6-5.2-2.7-13.3-6-18-7.5-4.7-1.5-11.5-3.2-15-3.8-3.5-.6-10.8-1.3-16.1-1.5-5.4-.2-12.5-.1-15.8.3zm-276.7 290.1c44.9.1 118.3.1 163.1 0s8-.2-81.7-.2c-89.8 0-126.4.1-81.4.2z"/><path fill="#fff" d="m913.5 169.1 1.4 5.4c.7 2.9 2.2 7.9 3.3 11 1.1 3.1 3.2 8.3 4.7 11.6 1.6 3.3 4.5 9.1 6.6 12.8 2.1 3.7 7.7 13.8 12.4 22.5 4.8 8.6 11.6 21.1 15.2 27.7 3.7 6.6 9.4 17.1 12.8 23.3 3.4 6.2 11 20 16.9 30.7 5.9 10.8 12 21.5 13.7 24 1.6 2.5 4.5 6.4 6.4 8.7 1.8 2.2 5.1 5.8 7.2 8 2.1 2.1 3.6 4 3.4 4.2-.2.1-3.1 1.7-6.4 3.5-3.3 1.8-7.3 4-9 4.9-1.6.9-8.3 4.6-14.8 8.1-6.5 3.6-12 6.5-12.2 6.5-.2 0-.6-1.6-.8-3.6-.2-1.9-1.3-6.2-2.3-9.5-1.1-3.3-3.4-9.2-5.3-13.1-1.8-4-11.4-21.9-21.2-40-9.9-18-18.3-32.8-18.8-32.8-.4 0-.9.6-1.1 1.3-.3.7-3.4 6.2-6.9 12.2-3.6 6-6.8 11.7-7.2 12.8-.6 1.6.2 3.5 6.2 14.6 3.9 7 10 18.3 13.8 25.1 3.7 6.8 8.1 14.6 9.7 17.3 1.7 2.6 4.6 6.9 6.4 9.3 1.9 2.5 5.6 6.8 12.9 14.7l-7.3 4c-4 2.2-13.1 7.1-20.1 11-7 3.8-13.1 7.2-13.7 7.5-.5.5-1 .3-1.2-.2-.1-.6-.9-3.5-1.8-6.6-.8-3.1-2.6-8.5-3.9-12-1.2-3.5-4.9-11.3-8.1-17.3-3.3-5.9-12.8-23.5-21.3-38.9-8.5-15.5-21.9-40-29.9-54.4-7.9-14.5-15.4-28.1-16.7-30.4-1.2-2.3-4.3-7.1-6.8-10.8-2.5-3.7-7.1-9.4-10.2-12.6-3.1-3.3-5.5-6-5.3-6.1.3-.2 3.8-2.1 7.9-4.3 4.1-2.2 13.3-7.1 20.3-11 7-3.9 13-7.1 13.4-7.2.3-.1 1.4 2.9 2.4 6.6 1 3.7 3.1 9.8 4.6 13.5 1.4 3.7 4 9.5 5.7 12.8 1.6 3.3 6.4 12.1 10.6 19.5 4.3 7.4 8.8 15.7 10.1 18.3 1.5 3 2.7 4.6 3 4.2.4-.4 3.3-5.3 6.5-10.9 3.2-5.6 6.6-11.6 9.6-16.9l-6.6-12.4c-3.7-6.8-9.4-16.5-12.8-21.7-3.4-5.2-8.8-12.2-17.7-21.8l16.7-9.1c9.2-5 18.7-10.2 21.2-11.6zm-131.2 77.6c3.7.2 7.8.9 10.5 1.9 2.5 1 6.2 2.8 8.3 4.1 2.1 1.3 5.2 3.9 7 5.7 1.8 1.8 4.2 4.7 5.2 6.3 1.1 1.7 4.4 7.4 7.5 12.8 3 5.3 6.8 11.5 8.5 13.7 1.6 2.1 2.9 4.1 2.9 4.3 0 .2-2.1 1.5-4.7 2.9-2.6 1.3-10 5.4-16.5 9-6.5 3.5-11.9 6.4-12.1 6.3-.2-.1-1.9-4.1-3.8-8.9-1.9-4.7-4.6-10.1-5.9-12-1.4-1.8-4.2-4.4-6.2-5.8-2.9-1.9-4.4-2.4-7.2-2.4-2 0-4.5.5-5.6 1-1.2.6-3 2.1-4.2 3.4-1.1 1.3-2.2 3.4-2.5 4.8-.2 1.3 0 4.1.6 6.2.6 2 3.2 7.6 5.9 12.3 2.7 4.9 5.8 9.3 7.1 10.2 1.2.9 3.4 2 4.9 2.5 1.4.4 8.5 1.6 15.7 2.7 7.2 1 19.6 2.7 27.4 3.8 7.9 1.1 16.1 2.7 18.4 3.5 2.2.9 5.4 2.5 7.1 3.6 1.6 1.2 3.9 3.1 5 4.2 1.1 1.2 3.4 4.5 5.3 7.4 1.8 2.9 6.3 10.8 9.9 17.6 3.6 6.8 8.3 15.3 10.3 18.8s4.6 9.2 5.9 12.7c1.7 5.1 2.2 7.7 2.2 12.6 0 4.5-.4 7.4-1.6 10.5-1.2 3.3-2.9 5.5-6.9 9.6-4.5 4.4-7.5 6.3-18.9 12.5-7.4 4-15.7 8.3-18.3 9.6-2.8 1.3-7.4 2.6-10.5 3.1-4.3.6-6.9.6-10.9-.1-2.9-.5-7.1-1.8-9.4-2.9-2.3-1.1-6-3.9-8.2-6.2-2.7-2.7-6-7.4-9.3-13.5-2.9-5.1-7.4-13.2-10.1-17.9-2.7-4.8-6.2-10.4-7.9-12.7-3-3.9-3.1-4-1.6-5 .8-.6 8.4-4.8 16.9-9.4 8.4-4.6 15.5-8 15.8-7.7.2.4 1.2 2.9 2.1 5.5 1 2.7 3.2 7.8 5 11.3 1.7 3.5 4.7 8.6 6.6 11.2 1.9 2.7 4.9 5.9 6.7 7 2.7 1.9 3.7 2.1 7.4 1.9 2.8-.1 5-.8 6.4-1.8 1.1-.8 2.9-3 3.8-4.9 1.2-2.3 1.7-4.2 1.5-6.3-.2-1.6-1.9-6.1-3.8-9.9-2-3.8-5.3-9.9-7.6-13.5-2.7-4.5-4.9-7.2-6.9-8.4-2.1-1.3-5.3-2.2-11.5-3.1-4.8-.7-10.2-1.5-12-1.7-1.9-.3-10.2-1.3-18.4-2.4-9.5-1.2-17.1-2.6-20.6-3.8-3.1-1.1-7.3-3-9.3-4.3-2.1-1.3-5.3-4.1-7.2-6.2-1.9-2-4.9-6.6-6.7-10.1-1.8-3.5-5.8-10.7-8.9-16.1-3.1-5.3-6.6-12.1-7.7-15-1.2-2.9-2.5-7.6-3-10.5-.4-2.9-.6-7.1-.3-9.4.3-2.2 1.1-6.1 1.9-8.6.7-2.5 2.8-6.6 4.6-9.3 2.3-3.4 4.6-5.7 8.1-8 2.6-1.7 10.7-6.3 18-10.2 7.2-3.8 14.6-7.4 16.5-7.9 2-.6 5.7-.8 9.3-.6zm-88.8 43.8c.3.3 1.5 3.8 2.6 8 1.1 4.1 3 10 4.2 13.1 1.2 3.1 6.7 13.9 12.1 24 5.4 10.1 11.2 20.9 13 24 1.7 3.1 9.7 17.4 17.6 31.9 7.9 14.4 19 34.5 24.5 44.6 5.6 10.1 12.3 21.4 14.8 25.1 2.5 3.7 7 9.3 15.4 18.4l-3.2 1.8c-1.7 1-11.2 6.3-21 11.6-11.4 6.3-17.9 9.5-18.1 8.9-.1-.5-1.2-4.3-2.3-8.4-1.1-4.2-3-9.9-4.2-12.8-1.2-2.9-8.6-17-16.5-31.5-7.9-14.4-18-32.8-22.4-40.9-4.4-8-14-25.6-21.4-39-7.3-13.4-14.6-26.5-16.2-29.2-1.5-2.7-4.6-7.4-6.8-10.5-2.2-3.1-6.3-8.1-14.1-16.5l7.3-4c4-2.3 13.4-7.5 20.8-11.6s13.7-7.3 13.9-7zm-54.7 30c.3.3 3.3 5.5 6.7 11.7 3.4 6.2 7.7 14.1 12.7 23.6l-4.3.9c-2.4.4-7.5 1.8-11.4 3.1-4 1.2-8.8 3.1-10.9 4.1-2.1 1-3.8 2-3.9 2.2-.2.1 2.8 5.7 6.4 12.4 3.7 6.7 10.5 19.1 15.1 27.6 4.6 8.4 11.3 20.5 14.7 26.8 3.5 6.3 9.2 16.7 12.7 23.1 3.5 6.4 9.3 16.9 12.8 23.4 3.6 6.5 8 14.3 9.8 17.4 1.8 3.1 5.1 8 7.2 10.9 2.2 2.9 5.9 7.3 8.2 9.8 2.4 2.4 4.3 4.7 4.3 5 .1.3-4.7 3.2-10.6 6.3-5.9 3.2-15.2 8.2-20.6 11.3-5.5 3-10.1 5.4-10.2 5.3-.1-.1-1.2-3.6-2.3-7.7-1.2-4.1-3.1-10-4.3-13.1-1.2-3.1-7.8-15.9-14.6-28.5-6.9-12.6-19.1-34.9-27.1-49.5-8.1-14.7-16.2-29.5-18.2-33s-6.4-11.5-9.9-17.8c-3.4-6.3-6.5-11.5-6.8-11.5-.3 0-1.5.6-2.6 1.3-1.2.7-4.1 2.8-6.6 4.6-2.5 1.9-7.1 5.9-16 14.8l-2.2-4.2c-1.2-2.2-4.3-7.8-6.8-12.3-2.4-4.6-5.5-10.3-6.9-12.8-1.3-2.5-2.7-4.9-3.1-5.4-.4-.7.2-1.5 2.2-2.7 1.5-1 8.7-5 15.9-8.9 7.2-3.9 14.7-8 16.5-9 1.9-1.1 11-6.1 20.3-11.1 9.2-5.1 20.5-11.4 25.1-13.9 4.5-2.5 8.4-4.4 8.7-4.2zm-101.9 55.6c.3 0 3 4.5 6 9.9 2.9 5.5 7.3 13.4 9.7 17.7 2.8 5 4 7.7 3.4 7.9-.5.1-4.5 1.1-8.8 2.2-4.3 1-10.8 3.1-14.4 4.6-3.6 1.5-6.6 3-6.6 3.4 0 .5 6 11.7 13.2 25 7.3 13.3 15 27.4 17.2 31.3 2.2 3.9 12.3 22.3 22.5 40.9 10.2 18.5 20.3 36.4 22.5 39.7 2.2 3.3 6.7 9.1 16.1 19.9l-9.9 5.3c-5.5 3-14.8 8.1-20.6 11.3-5.9 3.2-10.9 5.8-11.1 5.7-.1-.1-1.5-4.4-3-9.6-1.6-5.4-4.5-13.1-7.1-18.3-2.4-5-7.4-14.4-11.1-21-3.7-6.6-10.7-19.3-15.5-28.2-4.9-8.8-11.6-21.1-15-27.3-3.4-6.2-10.2-18.5-15-27.4-4.9-8.9-10.5-19.1-12.5-22.7-2-3.6-3.9-6.6-4.1-6.6-.2 0-3 1.8-6.1 3.9-3.2 2.2-8.8 6.8-12.4 10.4-3.6 3.5-6.7 6.2-6.9 6-.1-.2-3.1-5.4-6.5-11.6-3.4-6.2-7.6-14-9.4-17.3-2.6-4.7-3.1-6.2-2.4-6.8.6-.5 6.4-3.8 13-7.4 6.6-3.7 19.1-10.5 27.7-15.3 8.7-4.7 21.2-11.5 27.8-15.2 6.6-3.6 13.5-7.4 15.4-8.5 1.8-1 3.6-1.9 3.9-1.9zM422 442.6c1.8.2 5 .8 7.1 1.4 2.1.5 5.9 2.5 8.6 4.2 2.6 1.8 6 5 7.6 7 1.5 2.1 10 17.1 18.9 33.4 8.8 16.3 18.9 34.7 22.3 40.9 3.4 6.2 12.8 23.2 20.8 37.8 8.1 14.7 15.5 28.2 16.4 30 .9 1.9 2 5.2 2.4 7.4.5 2.1.9 5.3.9 7.1 0 1.7-.6 5.2-1.2 7.7-.6 2.4-1.9 5.9-2.8 7.7-.9 1.8-3 4.5-4.7 6.1-1.6 1.6-7.5 5.4-13.1 8.5-5.6 3-14.8 8.1-20.6 11.3-7.4 4-11.9 5.9-15 6.5-3.3.6-5.8.6-9.4 0-2.7-.5-7.1-2-9.7-3.4-2.7-1.4-6.5-4.2-8.4-6.2-2.5-2.5-6.5-9-14.2-23-5.8-10.8-11.8-21.7-13.3-24.4-1.4-2.7-8.5-15.7-15.7-28.9-7.2-13.2-18.7-34.1-25.6-46.5q-12.4-22.5-13.8-27.4c-.7-2.6-1.3-6.9-1.3-9.3 0-2.5.5-6.2 1-8.3.6-2 1.8-5.2 2.7-6.9.8-1.8 2.9-4.5 4.5-6 1.6-1.6 7.7-5.5 13.7-8.8 5.9-3.3 14.8-8.2 19.7-10.9 5-2.8 10.4-5.4 12-5.9 1.7-.5 3.9-1 4.9-1.2 1-.1 3.4-.1 5.3.1zm-103.9 58.6c1.6.1 4.2.6 5.6 1 1.5.5 4.5 1.8 6.8 3 2.2 1.2 5.5 3.6 7.2 5.3 1.8 1.9 6.1 8.5 10.1 15.6 3.8 6.8 7.7 13.7 8.8 15.4 1 1.6 3.2 4.7 4.7 6.9 1.6 2.2 2.9 4.1 2.9 4.3 0 .2-5.5 3.3-12.2 6.9-6.7 3.5-14.1 7.6-16.5 9-2.3 1.4-4.4 2.4-4.5 2.3-.1-.1-1.7-3.7-3.6-8-1.8-4.3-4.9-10.5-6.9-13.7-1.9-3.2-4.5-6.4-5.6-7.1-1.1-.7-3.4-1.5-5.1-1.6-2-.2-4 .2-6.1 1.2-1.8.9-3.9 2.7-4.7 4.1-.9 1.5-1.5 3.7-1.5 5.8 0 1.9.7 4.9 1.7 7.1 1 2.1 8.8 16.4 17.4 31.9 8.5 15.5 18.2 32.8 21.4 38.6 3.2 5.8 9.1 16.8 13.1 24.4 4 7.6 8.1 15 9.1 16.3 1 1.3 2.9 3 4.2 3.7 1.3.6 4 1.2 5.8 1.2 2 0 4.5-.6 6-1.4 1.5-.8 3.3-2.7 4-4.1 1-2 1.3-3.6.9-6.7-.3-3.3-1.4-6.1-5.4-13.1-2.7-5-6.7-12.2-8.9-16.2-2.2-3.9-5.5-9.2-7.4-11.8-1.9-2.5-3.4-4.8-3.2-5 .1-.1 6-3.5 13.3-7.4 7.2-3.9 14.3-7.8 15.7-8.7 1.5-.8 3.1-1.6 3.8-1.6.6 0 1.6 1.6 2.5 4 .8 2.1 3.5 8.1 6.1 13.3 2.6 5.1 7.5 14.4 11 20.6 3.5 6.2 7.7 14.1 9.3 17.6 2.4 5.4 2.9 7.4 3.2 12.4.1 3.3-.1 7.7-.5 9.8-.5 2-2.2 5.8-3.9 8.4-2.1 3.2-4.3 5.6-7.3 7.6-2.4 1.5-7 4.3-10.3 6.1-3.3 1.8-10.7 5.8-16.5 9-5.8 3.2-12.4 6.4-14.6 7-2.3.7-5.7 1.3-7.5 1.3-1.9 0-5.6-.7-8.3-1.5-2.8-.9-6.6-2.8-9-4.6-2.3-1.7-5.1-4.3-6.4-5.8-1.2-1.5-7.9-13.2-14.8-26-7-12.8-14.6-26.8-17-31.2-2.4-4.3-8.1-14.8-12.8-23.2-4.7-8.5-14.3-25.8-21.3-38.6-7.1-12.8-13.4-24.6-14.1-26.3-.6-1.6-1.4-4.8-1.7-7.1-.3-2.3-.2-6.1.3-8.6.4-2.5 1.8-6.6 3-9 1.2-2.5 3.5-5.7 5.2-7.2 1.6-1.4 10.3-6.6 19.4-11.6 9-4.9 18.2-9.9 20.5-11.1 2.2-1.1 5.8-2.3 7.8-2.6 2.1-.4 5.1-.5 6.8-.3zm-110.6 61.4c2.2.3 6.1 1 8.6 1.8s6.5 2.7 9 4.3c2.5 1.6 6.2 4.7 8.3 7 2.1 2.3 6.3 8.5 9.7 14.5 3.2 5.8 6.9 12 8.1 13.9 1.2 1.8 3 4.2 5.8 7.1l-8.1 4.6c-4.4 2.6-11.9 6.7-16.5 9.2-4.6 2.5-8.7 4.6-9 4.6-.3 0-1.4-2.1-2.3-4.7-1-2.6-2.9-7-4.3-9.9-1.6-3.5-3.8-6.6-6.5-9.1-2.2-2.2-5.3-4.3-7-4.8-1.6-.5-4.1-.7-5.6-.5-1.4.3-3.7 1.2-5 2-1.4.8-3 2.6-3.7 3.9-.7 1.4-1.2 4.1-1.2 6.2.1 3 .9 5.4 3.9 11.3 2.1 4.1 5 9.1 6.4 11 1.5 2 4 4.3 5.6 5.1 1.9.9 7.1 2.1 13.7 3 5.9.8 18.8 2.6 28.7 4 10.6 1.5 19.7 3.2 22.1 4.2 2.3.8 5.8 2.8 7.9 4.4 2.2 1.6 5.3 5.2 7.7 8.8 2.2 3.3 7 11.7 10.8 18.7 3.7 7 8.5 15.6 10.5 19.1 2 3.5 4.6 9.3 5.9 12.8 1.8 5.1 2.2 7.6 2.2 12.7 0 3.8-.4 7.8-1.1 9.8-.6 1.8-2.4 5.1-4 7.1-1.5 2.1-4.8 5.2-7.3 7-2.4 1.8-10 6.3-16.8 10-6.8 3.8-14.9 7.8-18 9.1-4.3 1.7-7.2 2.4-12 2.6-4.7.3-7.6 0-10.9-.9-2.5-.7-6.2-2.2-8.2-3.3-2-1.1-5.2-3.7-7.1-5.9-1.9-2.1-5.8-8-8.6-13.1-2.9-5.1-7.4-13.1-10.1-17.9-2.7-4.7-6.2-10.4-7.9-12.5-1.7-2.2-2.9-4.1-2.7-4.2.2-.2 4.9-2.8 10.5-5.9 5.5-3.1 13-7.2 16.7-9.1 6.5-3.5 6.5-3.5 7.2-1.8.3.9 1.3 3.6 2.2 6 .9 2.4 2.7 6.4 4 9 1.3 2.6 3.7 6.8 5.4 9.5 1.7 2.6 4.8 6.3 6.8 8.1 2.1 1.8 4.6 3.4 5.7 3.6 1 .3 3.4 0 5.2-.4 1.9-.5 4.3-1.6 5.5-2.3 1.1-.8 2.6-2.9 3.2-4.6.8-2.1 1.1-4.4.8-6.6-.2-1.9-1.8-6.1-3.5-9.4-1.7-3.3-4.8-8.7-6.7-12-2-3.3-4.8-7.1-6.3-8.4-1.5-1.4-4-2.8-5.5-3.2-1.6-.4-13.3-2.1-26.1-3.7-12.8-1.7-26-3.8-29.3-4.6-3.3-.8-8-2.6-10.5-4-2.4-1.4-6.3-4.5-8.6-6.9-2.5-2.7-5.6-7.3-7.8-11.6-2-3.9-5.4-10.1-7.6-13.8-2.2-3.7-5.1-9.1-6.6-12-1.4-2.9-3.2-7.5-3.9-10.2-.9-3.5-1.1-6.8-.9-12.3.2-5.2.8-8.8 1.9-11.7.9-2.2 2.7-5.8 4.1-7.8 1.4-2.1 4.2-5 6.3-6.6 2-1.5 10.2-6.3 18.3-10.6 8-4.3 15.9-8.2 17.6-8.6 1.6-.5 3.8-1 4.9-1.1 1-.2 3.7-.2 6 0zm989.2 411.6c7.7.2 16 .8 19.9 1.5 3.7.6 10.1 2.1 14.2 3.2 4.2 1.1 10.9 3.3 15 4.9 4.2 1.6 10.6 4.5 14.3 6.4 3.7 1.9 9.9 5.7 13.9 8.3 3.9 2.6 8.9 6.3 11.2 8.2 2.3 1.9 6.3 5.5 8.9 8 2.6 2.5 7.5 7.7 10.8 11.6 3.3 4 7.7 9.9 9.9 13.2 2.1 3.3 5.5 8.9 7.4 12.5 1.9 3.6 4.9 10 6.5 14.1 1.7 4.1 4 11.3 5.3 15.9 1.2 4.7 2.7 11.8 3.3 16 .7 4.5 1.2 12.8 1.2 20.8 0 8.2-.5 16.2-1.2 21-.6 4.2-2 11-3.1 15.2-1 4.1-3.1 10.8-4.7 15-1.6 4.1-4.4 10.7-6.4 14.6-2 3.9-5.8 10.5-8.5 14.6-2.8 4.1-6.6 9.5-8.7 12-2 2.5-5.7 6.7-8.2 9.3-2.5 2.6-7.5 7.2-11 10.1-3.5 3-9.7 7.6-13.9 10.4-4.1 2.7-10.8 6.6-15 8.6-4.1 2.1-11.5 5.2-16.5 6.9-4.9 1.8-13 4-18 5-4.9 1-11.8 2.1-15.3 2.4-3.5.3-12.7.4-20.3.1-9.9-.3-16.3-.9-22.5-2.1-4.7-.9-12.7-3-17.6-4.7-5-1.6-13.1-4.9-18-7.3-5-2.4-12.4-6.7-16.5-9.5-4.1-2.7-10-7.1-13.1-9.7-3.1-2.6-8.5-7.7-12-11.4-3.5-3.6-8.3-9.2-10.6-12.2-2.4-3.1-6-8.5-8.2-12-2.2-3.5-5.8-10.1-7.9-14.6-2.2-4.6-5.1-12-6.6-16.5-1.4-4.6-3.3-11.8-4.1-16.2-.8-4.3-1.9-11.7-2.4-16.5-.5-5.1-.7-11.9-.4-16.8.3-4.6 1-11.7 1.6-15.8.6-4.1 1.6-9.7 2.2-12.4.6-2.6 2.2-8 3.5-12 1.3-3.9 4-10.7 6-15.1 2-4.5 5.4-11.1 7.7-14.7 2.2-3.6 6.1-9.4 8.7-12.9 2.6-3.5 7.8-9.5 11.5-13.4 3.8-3.9 9.4-9.1 12.5-11.6 3.1-2.5 8.6-6.5 12.3-9 3.8-2.4 10.2-6.1 14.3-8.2 4.1-2.1 10.9-5 15-6.6 4.1-1.5 11.2-3.6 15.7-4.7 4.6-1 10.8-2.3 13.9-2.7 3.1-.5 6.8-1 8.3-1.1 1.4-.2 8.5-.2 15.7-.1zm-57 327.7c.6.2 4.3 1.2 8.3 2.2 3.9 1 11 2.5 15.7 3.2 6.9 1.1 12.8 1.4 29.6 1.4 16.9 0 22.8-.3 30-1.4 5-.8 12.6-2.3 24.8-5.5l7.9 3.9c4.3 2.2 10.9 6 14.6 8.4 3.7 2.5 8.9 6.3 11.6 8.5 2.7 2.2 7.3 6.4 10.2 9.3 2.9 2.9 8.1 8.9 11.5 13.2 3.5 4.3 9.2 12.3 12.7 17.6 3.6 5.4 9.3 15 12.6 21.4 3.4 6.4 7.9 15.7 10 20.6 2.2 5 5.1 12.1 6.5 15.8 1.4 3.7 4.1 11.1 6 16.5 1.8 5.3 4.7 14.4 6.3 20.2 1.7 5.8 4.4 15.7 6 22.1 1.6 6.4 4.3 18.2 5.9 26.3 1.7 8 4.4 22.6 6.1 32.4 1.6 9.8 3 19.3 3 21 0 1.8-.6 4.9-1.3 7-.8 2.4-2.5 4.9-4.9 7.3-2.6 2.5-4.7 3.9-7.5 4.7-3.5 1-24.4 1.1-172 1.1-145.3 0-168.5-.1-171.7-1.1-2.1-.6-5.2-2.4-7.1-3.9-1.8-1.6-3.9-4.2-4.7-5.9-.9-1.6-1.7-4.8-1.9-7.1-.2-2.4.3-8.6 1.3-14.6.9-5.8 2.8-16.8 4.2-24.4 1.4-7.6 4-20.1 5.7-27.8 1.7-7.6 4.7-19.9 6.7-27.3 2-7.5 5.6-19.3 7.9-26.3 2.3-7 6.2-17.8 8.6-24 2.5-6.2 7.3-17 10.7-24 3.4-7 8.3-16.3 10.9-20.6 2.6-4.3 6.7-10.6 9-13.9 2.3-3.3 6.9-9.4 10.2-13.5 3.2-4.1 8.8-10.4 12.3-13.9 3.6-3.5 9.1-8.4 12.4-10.9 3.3-2.5 8.1-5.8 10.5-7.4 2.5-1.6 8.1-4.7 12.4-6.9 4.3-2.2 8.3-3.9 9-3.7zM407.5 486c-1.1.6-2.6 2.2-3.2 3.5-.7 1.4-1.2 4-1.2 5.8 0 1.9.7 4.6 1.4 6 .8 1.5 4.4 8.1 8.1 14.7 3.6 6.6 10.3 18.7 14.8 27 4.6 8.2 11 20 14.4 26.2 3.4 6.2 10 18.3 14.7 26.9 5.2 9.6 9.5 16.6 11 17.9 1.4 1.1 3.7 2.3 5.3 2.6 2 .3 3.5.1 5.4-1 1.4-.7 3.4-2.6 4.3-4 1.1-1.7 1.7-3.7 1.7-5.6 0-2.3-1.3-5.4-5.3-12.8-3-5.3-8.1-14.8-11.5-21-3.4-6.2-14.7-26.8-25.1-45.7-10.4-19-19.7-35.6-20.6-36.9-.9-1.3-2.5-3-3.7-3.6-1.1-.6-3.5-1.1-5.2-1.1-1.8 0-4.1.5-5.3 1.1z"/></svg>
