<?xml version="1.0" encoding="UTF-8"?>
<svg id="Ebene_1" data-name="Ebene 1" xmlns="http://www.w3.org/2000/svg" version="1.1" viewBox="0 0 960 560">
  <defs>
    <style>
      .cls-1 {
        fill: #f2c144;
      }

      .cls-1, .cls-2, .cls-3, .cls-4, .cls-5, .cls-6 {
        stroke-width: 0px;
      }

      .cls-2 {
        fill: none;
      }

      .cls-3 {
        fill: #010000;
      }

      .cls-4 {
        fill: #408e47;
      }

      .cls-5 {
        fill: #df7c40;
      }

      .cls-6 {
        fill: #0094c0;
      }
    </style>
  </defs>
  <g>
    <path class="cls-3" d="M258.15,234.29c0-4.14-.16-7.38-.32-10.63h6.25l.32,6.33h.24c2.19-3.73,5.84-7.22,12.41-7.22,5.27,0,9.33,3.25,11.04,7.87h.16c1.22-2.27,2.84-3.89,4.46-5.11,2.35-1.79,4.87-2.76,8.6-2.76,5.27,0,12.98,3.41,12.98,17.04v23.12h-6.98v-22.23c0-7.63-2.84-12.09-8.52-12.09-4.14,0-7.22,3-8.52,6.41-.32,1.06-.57,2.35-.57,3.57v24.34h-6.98v-23.53c0-6.33-2.76-10.79-8.2-10.79-4.38,0-7.71,3.57-8.84,7.14-.41,1.05-.57,2.27-.57,3.49v23.69h-6.98v-28.64Z"/>
    <path class="cls-3" d="M324.84,255.71c2.19,1.3,5.92,2.76,9.49,2.76,5.11,0,7.55-2.51,7.55-5.84s-2.03-5.27-7.22-7.22c-7.14-2.59-10.47-6.41-10.47-11.11,0-6.33,5.19-11.52,13.55-11.52,3.97,0,7.46,1.06,9.57,2.43l-1.7,5.11c-1.54-.89-4.38-2.27-8.03-2.27-4.22,0-6.49,2.43-6.49,5.35,0,3.33,2.27,4.79,7.38,6.73,6.73,2.51,10.31,5.92,10.31,11.85,0,6.98-5.43,11.84-14.6,11.84-4.3,0-8.28-1.13-11.03-2.76l1.7-5.35Z"/>
    <path class="cls-3" d="M385.94,261.55c-1.86.89-6,2.27-11.28,2.27-11.84,0-19.55-8.03-19.55-20.12s8.28-20.93,21.1-20.93c4.22,0,7.95,1.06,9.9,2.11l-1.62,5.44c-1.71-.89-4.38-1.87-8.28-1.87-9.01,0-13.87,6.74-13.87,14.93,0,9.09,5.84,14.69,13.63,14.69,4.06,0,6.73-.97,8.76-1.87l1.22,5.35Z"/>
    <path class="cls-3" d="M394.38,235.91c0-4.63-.08-8.6-.33-12.25h6.25l.32,7.71h.25c1.78-5.27,6.16-8.6,10.96-8.6.73,0,1.3.08,1.94.24v6.65c-.81-.08-1.54-.16-2.51-.16-5.03,0-8.6,3.81-9.57,9.09-.16,1.06-.25,2.19-.25,3.41v20.93h-7.14l.08-27.02Z"/>
    <path class="cls-3" d="M421.15,234.29c0-4.14-.16-7.38-.33-10.63h6.25l.32,6.33h.24c2.19-3.73,5.84-7.22,12.41-7.22,5.27,0,9.33,3.25,11.03,7.87h.16c1.22-2.27,2.84-3.89,4.46-5.11,2.35-1.79,4.87-2.76,8.6-2.76,5.27,0,12.98,3.41,12.98,17.04v23.12h-6.98v-22.23c0-7.63-2.84-12.09-8.52-12.09-4.14,0-7.22,3-8.52,6.41-.32,1.06-.57,2.35-.57,3.57v24.34h-6.97v-23.53c0-6.33-2.76-10.79-8.2-10.79-4.38,0-7.71,3.57-8.84,7.14-.41,1.05-.57,2.27-.57,3.49v23.69h-6.98v-28.64Z"/>
    <path class="cls-3" d="M505.37,238.42v5.19h-20.04v-5.19h20.04Z"/>
    <path class="cls-3" d="M545.77,253.35c0,3.73.16,7.39.65,9.58h-11.12l-.73-3.98h-.24c-2.6,3.17-6.65,4.87-11.36,4.87-8.03,0-12.82-5.84-12.82-12.17,0-10.3,9.25-15.17,23.29-15.17v-.48c0-2.11-1.14-5.11-7.22-5.11-4.06,0-8.36,1.38-10.95,2.92l-2.27-7.87c2.76-1.54,8.19-3.57,15.41-3.57,13.23,0,17.37,7.79,17.37,17.12v13.87ZM533.84,244.18c-6.49,0-11.52,1.54-11.52,6.25,0,3.17,2.11,4.71,4.87,4.71,3,0,5.59-2.03,6.41-4.54.16-.65.24-1.38.24-2.11v-4.3Z"/>
    <path class="cls-3" d="M594.04,205.32v45.76c0,4.54.16,9.17.33,11.85h-10.95l-.48-5.76h-.25c-2.43,4.38-7.3,6.65-12.41,6.65-9.41,0-16.96-8.03-16.96-20.36-.08-13.31,8.28-21.1,17.77-21.1,4.95,0,8.68,1.78,10.46,4.46h.16v-21.5h12.33ZM581.71,240.13c0-.73,0-1.54-.16-2.27-.73-3.33-3.4-6-7.22-6-5.68,0-8.52,5.03-8.52,11.27,0,6.65,3.33,10.88,8.44,10.88,3.57,0,6.49-2.44,7.23-5.92.16-.81.24-1.78.24-2.76v-5.19Z"/>
    <path class="cls-3" d="M642.4,205.32v45.76c0,4.54.17,9.17.33,11.85h-10.95l-.49-5.76h-.25c-2.43,4.38-7.3,6.65-12.42,6.65-9.41,0-16.96-8.03-16.96-20.36-.08-13.31,8.28-21.1,17.77-21.1,4.95,0,8.68,1.78,10.47,4.46h.16v-21.5h12.33ZM630.07,240.13c0-.73,0-1.54-.16-2.27-.73-3.33-3.4-6-7.22-6-5.68,0-8.52,5.03-8.52,11.27,0,6.65,3.33,10.88,8.44,10.88,3.57,0,6.49-2.44,7.22-5.92.16-.81.24-1.78.24-2.76v-5.19Z"/>
    <path class="cls-3" d="M670.55,263.82c-11.6,0-20.53-7.62-20.53-20.44s8.44-21.01,21.26-21.01c12.08,0,20.2,8.36,20.2,20.36,0,14.44-10.3,21.09-20.85,21.09h-.09ZM670.8,254.98c4.87,0,7.87-4.79,7.87-11.93,0-5.84-2.27-11.85-7.87-11.85s-8.12,6.01-8.12,11.92c0,6.74,2.84,11.85,8.03,11.85h.08Z"/>
    <path class="cls-3" d="M699.11,235.91c0-4.95-.16-9.09-.32-12.66h10.71l.57,5.52h.24c1.62-2.6,5.6-6.41,12.25-6.41,8.11,0,14.2,5.44,14.2,17.12v23.45h-12.34v-21.99c0-5.11-1.78-8.6-6.24-8.6-3.41,0-5.44,2.35-6.33,4.63-.32.81-.4,1.94-.4,3.08v22.88h-12.33v-27.02Z"/>
    <path class="cls-3" d="M746.57,252.22c2.27,1.38,6.98,2.92,10.63,2.92s5.28-1.21,5.28-3.24-1.22-3.09-5.76-4.63c-8.28-2.68-11.44-7.22-11.36-11.85,0-7.46,6.32-13.06,16.14-13.06,4.62,0,8.68,1.14,11.12,2.35l-2.11,8.44c-1.79-.89-5.27-2.19-8.6-2.19-3,0-4.71,1.22-4.71,3.17s1.54,2.92,6.41,4.63c7.54,2.51,10.63,6.41,10.71,12.17,0,7.47-5.77,12.9-17.12,12.9-5.19,0-9.82-1.21-12.82-2.84l2.19-8.76Z"/>
    <path class="cls-3" d="M785.84,263.82c-2.76,0-4.71-2.19-4.71-5.11s2.03-5.11,4.87-5.11,4.79,2.11,4.79,5.11-1.94,5.11-4.87,5.11h-.08Z"/>
    <path class="cls-3" d="M827.62,261.55c-1.86.89-6,2.27-11.27,2.27-11.85,0-19.55-8.03-19.55-20.12s8.28-20.93,21.09-20.93c4.22,0,7.95,1.06,9.9,2.11l-1.62,5.44c-1.7-.89-4.38-1.87-8.28-1.87-9,0-13.87,6.74-13.87,14.93,0,9.09,5.84,14.69,13.63,14.69,4.05,0,6.73-.97,8.76-1.87l1.21,5.35Z"/>
    <path class="cls-3" d="M851.48,263.82c-10.54,0-18.82-7.79-18.82-20.2,0-13.14,8.68-20.85,19.47-20.85s18.9,8.19,18.9,20.12c0,14.6-10.14,20.93-19.47,20.93h-.08ZM851.72,258.46c6.82,0,11.93-6.41,11.93-15.34,0-6.65-3.32-15.01-11.76-15.01s-12.01,7.79-12.01,15.25c0,8.6,4.87,15.09,11.76,15.09h.08Z"/>
    <path class="cls-3" d="M880.03,234.29c0-4.14-.16-7.38-.32-10.63h6.25l.32,6.33h.24c2.19-3.73,5.84-7.22,12.41-7.22,5.27,0,9.33,3.25,11.04,7.87h.16c1.21-2.27,2.84-3.89,4.46-5.11,2.36-1.79,4.87-2.76,8.6-2.76,5.27,0,12.98,3.41,12.98,17.04v23.12h-6.97v-22.23c0-7.63-2.84-12.09-8.52-12.09-4.14,0-7.22,3-8.52,6.41-.32,1.06-.56,2.35-.56,3.57v24.34h-6.98v-23.53c0-6.33-2.75-10.79-8.19-10.79-4.38,0-7.71,3.57-8.85,7.14-.41,1.05-.57,2.27-.57,3.49v23.69h-6.98v-28.64Z"/>
  </g>
  <g>
    <path class="cls-6" d="M266.92,306.93v-11.35l-8.76-16.37h7.2l2.8,6.66c.86,2.02,1.48,3.5,2.14,5.3h.08c.62-1.73,1.28-3.33,2.1-5.3l2.8-6.66h7.03l-9.13,16.16v11.56h-6.25Z"/>
    <path class="cls-6" d="M289.92,307.38c-5.88,0-10.41-3.87-10.41-10.37s4.28-10.66,10.78-10.66c6.13,0,10.24,4.24,10.24,10.32,0,7.32-5.22,10.7-10.57,10.7h-.04ZM290.04,302.9c2.47,0,3.99-2.43,3.99-6.05,0-2.96-1.15-6-3.99-6s-4.11,3.04-4.11,6.05c0,3.41,1.44,6.01,4.07,6.01h.04Z"/>
    <path class="cls-6" d="M323.36,300.47c0,2.63.08,4.77.16,6.46h-5.43l-.29-2.84h-.12c-.78,1.24-2.67,3.3-6.29,3.3-4.11,0-7.08-2.55-7.08-8.76v-11.81h6.25v10.82c0,2.92.95,4.69,3.17,4.69,1.73,0,2.76-1.19,3.13-2.18.16-.37.25-.83.25-1.36v-11.97h6.25v13.66Z"/>
    <path class="cls-6" d="M328.42,293.44c0-2.96-.04-4.9-.16-6.63h5.35l.25,3.74h.16c1.03-2.96,3.45-4.2,5.43-4.2.58,0,.86.04,1.32.12v5.88c-.54-.08-1.03-.17-1.73-.17-2.3,0-3.87,1.19-4.28,3.17-.08.41-.12.87-.12,1.4v10.16h-6.25l.04-13.49Z"/>
    <path class="cls-6" d="M367.41,306.43c-1.11.54-3.21.95-5.59.95-6.5,0-10.66-3.99-10.66-10.33,0-5.88,4.03-10.7,11.52-10.7,1.65,0,3.46.29,4.77.79l-.99,4.65c-.74-.33-1.85-.62-3.5-.62-3.29,0-5.43,2.35-5.39,5.64,0,3.7,2.47,5.68,5.51,5.68,1.48,0,2.63-.25,3.58-.66l.74,4.61Z"/>
    <path class="cls-6" d="M379.67,307.38c-5.88,0-10.41-3.87-10.41-10.37s4.28-10.66,10.78-10.66c6.13,0,10.24,4.24,10.24,10.32,0,7.32-5.22,10.7-10.57,10.7h-.04ZM379.79,302.9c2.47,0,3.99-2.43,3.99-6.05,0-2.96-1.15-6-3.99-6s-4.11,3.04-4.11,6.05c0,3.41,1.44,6.01,4.07,6.01h.04Z"/>
    <path class="cls-6" d="M394.15,293.23c0-2.51-.08-4.61-.17-6.42h5.3l.25,2.76h.12c.86-1.32,2.67-3.21,6.09-3.21,2.63,0,4.65,1.36,5.51,3.46h.08c.79-1.07,1.65-1.89,2.63-2.47,1.11-.62,2.35-.99,3.83-.99,3.86,0,6.79,2.72,6.79,8.72v11.85h-6.09v-10.9c0-2.92-.95-4.61-2.96-4.61-1.48,0-2.47.99-2.92,2.18-.12.45-.2,1.07-.2,1.56v11.76h-6.09v-11.27c0-2.51-.9-4.24-2.92-4.24-1.61,0-2.55,1.23-2.92,2.22-.21.49-.25,1.07-.25,1.6v11.68h-6.09v-13.7Z"/>
    <path class="cls-6" d="M429.52,293.56c0-2.63-.08-4.86-.16-6.75h5.43l.29,2.8h.08c1.48-2.1,3.78-3.25,6.71-3.25,4.4,0,8.35,3.83,8.35,10.24,0,7.32-4.65,10.78-9.13,10.78-2.43,0-4.32-.99-5.22-2.3h-.08v9.99h-6.25v-21.51ZM435.77,298.29c0,.49.04.91.13,1.32.41,1.69,1.85,2.97,3.66,2.97,2.72,0,4.32-2.27,4.32-5.68,0-3.21-1.44-5.63-4.24-5.63-1.77,0-3.33,1.32-3.74,3.17-.08.33-.13.74-.13,1.11v2.76Z"/>
    <path class="cls-6" d="M470.86,302.08c0,1.89.08,3.74.33,4.85h-5.63l-.37-2.01h-.12c-1.32,1.6-3.37,2.47-5.76,2.47-4.08,0-6.5-2.97-6.5-6.17,0-5.22,4.69-7.69,11.81-7.69v-.25c0-1.07-.57-2.59-3.66-2.59-2.06,0-4.24.7-5.55,1.48l-1.15-3.99c1.4-.79,4.15-1.81,7.81-1.81,6.7,0,8.8,3.95,8.8,8.68v7.03ZM464.81,297.43c-3.29,0-5.84.78-5.84,3.17,0,1.61,1.07,2.39,2.47,2.39,1.52,0,2.84-1.03,3.25-2.3.08-.33.12-.7.12-1.07v-2.18Z"/>
    <path class="cls-6" d="M475.84,293.23c0-2.51-.08-4.61-.17-6.42h5.43l.29,2.8h.12c.82-1.31,2.84-3.25,6.21-3.25,4.11,0,7.2,2.76,7.2,8.68v11.89h-6.25v-11.15c0-2.59-.91-4.36-3.17-4.36-1.73,0-2.76,1.19-3.21,2.34-.16.41-.21.99-.21,1.56v11.6h-6.25v-13.7Z"/>
    <path class="cls-6" d="M503.85,286.81l3,9.87c.33,1.2.74,2.68.99,3.75h.12c.28-1.07.61-2.59.9-3.75l2.47-9.87h6.7l-4.69,13.25c-2.88,7.98-4.81,11.15-7.07,13.17-2.14,1.89-4.44,2.59-6.05,2.76l-1.32-5.27c.79-.16,1.77-.54,2.72-1.07.95-.49,2.01-1.52,2.59-2.51.21-.33.33-.62.33-.9,0-.21-.04-.54-.24-1.03l-7.4-18.39h6.95Z"/>
    <path class="cls-6" d="M529.72,306.93v-15.51h-2.68v-4.61h2.68v-.78c0-2.43.74-5.1,2.51-6.74,1.61-1.48,3.74-2.02,5.6-2.02,1.36,0,2.43.21,3.29.41l-.25,4.81c-.54-.16-1.2-.29-2.02-.29-2.06,0-2.92,1.61-2.92,3.58v1.02h4.03v4.61h-3.99v15.51h-6.25Z"/>
    <path class="cls-6" d="M551.94,307.38c-5.88,0-10.41-3.87-10.41-10.37s4.27-10.66,10.78-10.66c6.13,0,10.24,4.24,10.24,10.32,0,7.32-5.23,10.7-10.57,10.7h-.04ZM552.06,302.9c2.47,0,3.99-2.43,3.99-6.05,0-2.96-1.15-6-3.99-6s-4.12,3.04-4.12,6.05c0,3.41,1.44,6.01,4.07,6.01h.04Z"/>
    <path class="cls-6" d="M566.46,293.44c0-2.96-.04-4.9-.17-6.63h5.35l.25,3.74h.17c1.03-2.96,3.45-4.2,5.43-4.2.57,0,.86.04,1.31.12v5.88c-.54-.08-1.03-.17-1.73-.17-2.3,0-3.87,1.19-4.28,3.17-.08.41-.12.87-.12,1.4v10.16h-6.25l.04-13.49Z"/>
    <path class="cls-6" d="M614.01,296.32c-.12-3.33-.25-7.32-.25-11.39h-.08c-.9,3.54-2.06,7.49-3.12,10.74l-3.38,10.82h-4.89l-2.96-10.69c-.91-3.29-1.81-7.2-2.51-10.86h-.08c-.12,3.74-.29,8.02-.45,11.48l-.54,10.53h-5.8l1.77-27.73h8.35l2.71,9.3c.9,3.17,1.73,6.62,2.35,9.87h.16c.74-3.21,1.69-6.83,2.63-9.96l2.92-9.21h8.23l1.48,27.73h-6.09l-.45-10.62Z"/>
    <path class="cls-6" d="M625.56,300.51c1.65.86,4.28,1.72,6.95,1.72,2.88,0,4.4-1.19,4.4-3.04,0-1.69-1.31-2.71-4.65-3.87-4.61-1.65-7.65-4.2-7.65-8.27,0-4.73,3.99-8.31,10.49-8.31,3.17,0,5.43.61,7.07,1.4l-1.4,5.02c-1.07-.53-3.08-1.32-5.76-1.32s-4.03,1.28-4.03,2.67c0,1.77,1.52,2.55,5.14,3.95,4.89,1.81,7.16,4.36,7.16,8.31,0,4.65-3.54,8.6-11.15,8.6-3.17,0-6.29-.87-7.86-1.73l1.27-5.14Z"/>
    <path class="cls-6" d="M656.87,294.05v4.16h-10.78v-4.16h10.78Z"/>
    <path class="cls-6" d="M681.13,306.19c-1.11.53-3.74,1.2-7.08,1.2-9.58,0-14.52-6.01-14.52-13.95,0-9.46,6.75-14.69,15.14-14.69,3.25,0,5.72.66,6.83,1.23l-1.32,4.94c-1.23-.53-3-1.03-5.26-1.03-4.94,0-8.8,3-8.8,9.22,0,5.55,3.29,9.05,8.84,9.05,1.93,0,3.99-.37,5.26-.91l.91,4.94Z"/>
    <path class="cls-6" d="M685.29,279.62c2.02-.37,4.98-.61,8.35-.61,4.12,0,7,.61,8.97,2.22,1.69,1.32,2.59,3.25,2.59,5.8,0,3.5-2.51,5.92-4.89,6.79v.12c1.93.78,3,2.59,3.7,5.14.87,3.17,1.69,6.79,2.22,7.86h-6.42c-.41-.78-1.11-3.04-1.89-6.46-.78-3.5-1.97-4.4-4.56-4.44h-1.85v10.9h-6.21v-27.31ZM691.5,291.5h2.47c3.13,0,4.98-1.56,4.98-3.99s-1.73-3.82-4.61-3.82c-1.52,0-2.39.08-2.84.2v7.61Z"/>
    <path class="cls-6" d="M733.12,296.32c-.12-3.33-.25-7.32-.25-11.39h-.08c-.9,3.54-2.05,7.49-3.13,10.74l-3.37,10.82h-4.89l-2.96-10.69c-.9-3.29-1.81-7.2-2.51-10.86h-.08c-.12,3.74-.29,8.02-.46,11.48l-.53,10.53h-5.8l1.77-27.73h8.35l2.72,9.3c.9,3.17,1.73,6.62,2.34,9.87h.16c.74-3.21,1.69-6.83,2.64-9.96l2.92-9.21h8.22l1.49,27.73h-6.09l-.46-10.62Z"/>
    <path class="cls-6" d="M759.21,299.82l-1.94,7.11h-6.5l8.48-27.73h8.19l8.64,27.73h-6.75l-2.14-7.11h-7.98ZM766.24,295.12l-1.74-5.88c-.45-1.64-.94-3.74-1.35-5.35h-.12c-.37,1.65-.82,3.75-1.23,5.35l-1.69,5.88h6.13Z"/>
    <path class="cls-6" d="M779.77,279.62c2.31-.41,5.31-.61,8.43-.61,5.31,0,8.76.86,11.39,2.88,2.88,2.14,4.69,5.6,4.69,10.53,0,5.31-1.94,8.97-4.57,11.23-2.92,2.42-7.4,3.58-12.83,3.58-3.26,0-5.6-.21-7.12-.41v-27.19ZM786.02,302.2c.54.12,1.45.12,2.18.12,5.72.04,9.46-3.08,9.46-9.71,0-5.96-3.37-8.8-8.8-8.8-1.36,0-2.3.12-2.84.24v18.14Z"/>
    <path class="cls-6" d="M808.4,279.62c2.31-.41,5.31-.61,8.43-.61,5.31,0,8.76.86,11.39,2.88,2.88,2.14,4.69,5.6,4.69,10.53,0,5.31-1.94,8.97-4.57,11.23-2.92,2.42-7.4,3.58-12.83,3.58-3.25,0-5.6-.21-7.12-.41v-27.19ZM814.65,302.2c.54.12,1.45.12,2.18.12,5.72.04,9.46-3.08,9.46-9.71,0-5.96-3.37-8.8-8.8-8.8-1.36,0-2.3.12-2.84.24v18.14Z"/>
    <path class="cls-6" d="M846.33,294.05v4.16h-10.78v-4.16h10.78Z"/>
    <path class="cls-6" d="M862.04,307.38c-8.19,0-13.04-6.21-13.04-14.11,0-8.31,5.35-14.52,13.49-14.52s13.16,6.38,13.16,14.03c0,9.13-5.47,14.6-13.57,14.6h-.04ZM862.33,302.4c4.24,0,6.67-3.99,6.67-9.42,0-4.98-2.35-9.26-6.67-9.26s-6.75,4.2-6.75,9.38,2.51,9.29,6.71,9.29h.04Z"/>
    <path class="cls-6" d="M879.76,306.93v-27.73h7.32l5.76,10.16c1.65,2.92,3.25,6.38,4.53,9.5h.08c-.37-3.66-.49-7.4-.49-11.6v-8.06h5.75v27.73h-6.58l-5.93-10.7c-1.64-3-3.49-6.54-4.81-9.79h-.16c.21,3.7.29,7.61.29,12.13v8.35h-5.76Z"/>
    <path class="cls-6" d="M908.35,300.51c1.64.86,4.28,1.72,6.95,1.72,2.88,0,4.4-1.19,4.4-3.04,0-1.69-1.32-2.71-4.65-3.87-4.61-1.65-7.65-4.2-7.65-8.27,0-4.73,3.98-8.31,10.49-8.31,3.17,0,5.43.61,7.07,1.4l-1.4,5.02c-1.07-.53-3.09-1.32-5.76-1.32s-4.04,1.28-4.04,2.67c0,1.77,1.52,2.55,5.14,3.95,4.9,1.81,7.16,4.36,7.16,8.31,0,4.65-3.54,8.6-11.15,8.6-3.17,0-6.3-.87-7.86-1.73l1.27-5.14Z"/>
    <path class="cls-6" d="M933.12,307.38c-2.18,0-3.66-1.61-3.66-3.75s1.53-3.74,3.7-3.74,3.62,1.52,3.66,3.74c0,2.14-1.44,3.75-3.66,3.75h-.04ZM930.81,297.84l-.91-18.63h6.5l-.9,18.63h-4.69Z"/>
  </g>
  <rect class="cls-3" x="234.03" y="292.97" width="2.46" height="68.44"/>
  <rect class="cls-3" x="234.03" y="179.28" width="2.46" height="65.67"/>
  <g>
    <g>
      <path class="cls-2" d="M162.32,313.3c2.94,2.42,5.51,5.26,7.63,8.43,8.23-5.02,15.2-11.91,20.33-20.07-3.21-1.99-6.1-4.41-8.6-7.22-4.56,7.8-11.2,14.36-19.36,18.86Z"/>
      <path class="cls-2" d="M93.28,293.36c-2.42,2.93-5.27,5.49-8.45,7.61,5.13,8.4,12.21,15.5,20.6,20.65,2.13-3.16,4.72-5.99,7.67-8.4-8.21-4.56-15.13-11.38-19.82-19.86Z"/>
      <path class="cls-3" d="M113.1,313.22c2.77-2.26,5.86-4.15,9.19-5.58-10.42-4.17-19.06-12.42-23.42-23.37-1.45,3.29-3.33,6.36-5.59,9.09,4.69,8.48,11.61,15.3,19.82,19.86Z"/>
      <path class="cls-3" d="M181.68,294.44c-2.26-2.53-4.19-5.36-5.73-8.42-4.37,9.66-12.37,17.6-22.74,21.7,3.3,1.44,6.37,3.32,9.12,5.58,8.16-4.5,14.8-11.06,19.36-18.86Z"/>
      <path class="cls-3" d="M119.99,230.88c-3.03-1.55-5.82-3.5-8.33-5.76-7.42,4.42-13.63,10.67-18.04,18.37-.1.17-.17.35-.27.52,2.27,2.77,4.16,5.85,5.61,9.18,3.88-9.62,11.26-17.73,21.03-22.31Z"/>
      <path class="cls-3" d="M163.72,225.05c-2.49,2.26-5.26,4.21-8.27,5.77,8.86,4.13,16.19,11.35,20.41,20.62,1.53-3.09,3.45-5.94,5.71-8.5-4.42-7.47-10.59-13.59-17.85-17.89Z"/>
      <path class="cls-3" d="M190.28,301.66c-5.13,8.16-12.09,15.05-20.33,20.07,4,5.98,6.37,13.14,6.51,20.84,14.97-7.88,27.26-20.17,35.14-35.15-.32,0-.63.05-.95.05-7.48,0-14.44-2.15-20.37-5.81Z"/>
      <path class="cls-3" d="M104.53,216.51c-3.59-5.89-5.7-12.78-5.7-20.18,0-.42.05-.83.06-1.24-14.78,7.84-26.94,19.99-34.78,34.76,7.72.15,14.9,2.53,20.88,6.56,4.93-8.01,11.61-14.83,19.54-19.89Z"/>
      <path class="cls-3" d="M84.84,300.97c-5.99,3.99-13.15,6.35-20.86,6.48,7.83,14.88,20.03,27.13,34.89,35.01.16-7.7,2.54-14.87,6.57-20.84-8.39-5.15-15.47-12.25-20.6-20.65Z"/>
      <path class="cls-3" d="M211.46,229.84c-7.89-14.86-20.14-27.06-35.03-34.89.02.46.07.91.07,1.37,0,7.35-2.08,14.21-5.64,20.07,7.77,4.92,14.36,11.54,19.29,19.3,5.95-3.71,12.96-5.9,20.5-5.9.27,0,.54.04.82.04Z"/>
    </g>
    <path class="cls-5" d="M137.45,223.4c-14.96,0-27.08-12.13-27.08-27.08s12.12-27.08,27.08-27.08,27.08,12.13,27.08,27.08-12.12,27.08-27.08,27.08Z"/>
    <path class="cls-6" d="M236.69,268.44c0,14.95-12.12,27.08-27.08,27.08s-27.08-12.12-27.08-27.08,12.12-27.08,27.08-27.08,27.08,12.13,27.08,27.08Z"/>
    <path class="cls-4" d="M137.11,369.1c-14.77,0-26.75-11.98-26.75-26.75s11.97-26.75,26.75-26.75,26.74,11.97,26.74,26.75-11.98,26.75-26.74,26.75Z"/>
    <path class="cls-1" d="M90.98,268.77c0,14.96-12.13,27.08-27.08,27.08s-27.08-12.12-27.08-27.08,12.12-27.08,27.08-27.08,27.08,12.12,27.08,27.08Z"/>
  </g>
</svg>