<?xml version="1.0" encoding="UTF-8"?>
<svg id="Layer_1" data-name="Layer 1" xmlns="http://www.w3.org/2000/svg" viewBox="0 0 383.06 383.06">
  <defs>
    <style>
      .cls-1 {
        fill: #7a00ad;
      }

      .cls-2 {
        fill: none;
      }

      .cls-3 {
        fill: #7e04d5;
      }

      .cls-4 {
        fill: #151316;
      }

      .cls-5 {
        fill: #7a00b0;
      }
    </style>
  </defs>
  <path class="cls-5" d="M205.82,106.22c-17.43,16.23-39.92-12.26-22.33-25.78,17.3-13.3,37.24,11.9,22.33,25.78Z"/>
  <path class="cls-5" d="M192.09,166.43c14.31-2.6,16.57,18.31,4.24,20.32-14.88,2.43-16.54-18.08-4.24-20.32Z"/>
  <path class="cls-5" d="M161.39,157.32c12.76-.39,13.76,19.8,1.36,20.36-14.35.65-15.09-19.94-1.36-20.36Z"/>
  <path class="cls-5" d="M227.16,157.46c13.04.29,13.2,20.29-.78,20.13-12.72-.14-12.46-20.42.78-20.13Z"/>
  <line class="cls-4" x1="183.9" y1="186.95" x2="183.89" y2="186.97"/>
  <circle class="cls-1" cx="193.86" cy="93.89" r="17.2"/>
  <path class="cls-1" d="M232.9,153.2c-2.31-.19-4.55-.79-6.93-.54-2.53.27-5,1.15-7.09,2.6-3.43,2.38-6.16,6.57-6.45,10.8-.28,4.24,1.45,8.54,3.61,12.09.15.24-3.84,4.13-4.13,4.44-2.02,2.14-4.02,4.37-6.26,6.29l-1.62-1.62c2.87-2.65,4.67-6.46,4.67-10.68,0-8.06-6.53-14.59-14.58-14.59s-14.58,6.53-14.58,14.59c0,4.06,1.66,7.74,4.35,10.39l-1.12,1.91c-2.19-1.89-4.17-4.07-6.15-6.18-.3-.31-4.39-4.3-4.24-4.55,3.4-5.58,5.11-12.38,1.51-18.33-3.84-6.37-11.48-8.07-18.37-6.59,4.01-39.25,38.53-37.97,38.69-37.96,3.18.12,6.27.4,9.38,1.16,6.81,1.65,13.2,5.03,18.1,10.08,6.94,7.16,10.22,16.93,11.21,26.69Z"/>
  <g>
    <circle class="cls-1" cx="194.12" cy="176.58" r="10.18"/>
    <path class="cls-1" d="M217.92,213.65v22.54h-46.65v-22.54c0-12.88,10.44-23.33,23.32-23.33s23.33,10.45,23.33,23.33Z"/>
  </g>
  <circle class="cls-1" cx="161.81" cy="167.41" r="10.18"/>
  <path class="cls-1" d="M178.06,190.65l-1.33,1.03s-.01.01-.02.01c-.42.25-.94.59-1.53,1.03-.55.41-1.15.92-1.78,1.53-3.1,3.02-6.74,8.55-6.74,17.93l-.73,24.01s-8.74-2.35-20.83-14.48l-3.98-2.56c-7.87-10.2-5.99-24.85,4.2-32.72,10.21-7.87,24.86-5.98,32.73,4.22Z"/>
  <path class="cls-1" d="M210.5,190.65l1.33,1.03s.01.01.02.01c.42.25.94.59,1.53,1.03.55.41,1.15.92,1.78,1.53,3.1,3.02,6.74,8.55,6.74,17.93l.62,21.69s8.74-2.35,20.83-14.48l4.7,3.63c7.87-10.2,5.37-28.72-4.82-36.59-10.21-7.87-24.86-5.98-32.73,4.22Z"/>
  <path class="cls-1" d="M176.71,191.69l-.57.44-2.74,2.12c.63-.61,1.23-1.12,1.78-1.53.59-.44,1.11-.78,1.53-1.03Z"/>
  <path class="cls-1" d="M177.76,191.14l-1.62.99-.96.59c.59-.44,1.11-.78,1.53-1.03.01,0,.02-.01.02-.01.64-.38,1.03-.54,1.03-.54Z"/>
  <circle class="cls-1" cx="227.03" cy="167.49" r="10.18"/>
  <path class="cls-3" d="M229.66,89.84l-2.16,4.18-4.15,8.01-2.32,4.49c-.11.21-.41.19-.49-.04l-2.21-6.41-2.14-6.21c-.05-.14.02-.29.17-.34l5.62-1.76,7.36-2.3c.23-.07.43.17.32.38Z"/>
  <path class="cls-3" d="M130.03,157.9l-3.76,4.09-.76.83-4.51,4.91c-.1.11-.28.12-.38.01l-4.97-4.83h0s-.57-.56-.57-.56l-4.21-4.1c-.17-.16-.05-.45.18-.46l4.03-.07.96-.02,9.92-.17h.31s3.56-.07,3.56-.07c.23-.01.36.27.2.44Z"/>
  <path class="cls-4" d="M172.4,90.2v9.9c-1.14.39-2.26.81-3.37,1.27h-8.08v-6.8c3.67-1.74,7.49-3.21,11.45-4.37Z"/>
  <path class="cls-2" d="M115.62,168.47c0,.06,0,.12.01.18h.19"/>
  <path class="cls-3" d="M227.5,94.02c-1.81-.82-3.65-1.57-5.52-2.26l-5.62,1.76c-.15.05-.22.2-.17.34l2.14,6.21c1.71.58,3.38,1.23,5.02,1.96,24.75,10.78,42.05,35.45,42.05,64.17,0,38.66-31.34,69.99-69.99,69.99s-68.65-30.01-69.93-67.54h-.25l-4.78,4.21-4.63-4.21-.2-.18c0,.06,0,.12.01.18,1.28,42.63,36.25,76.78,79.18,76.78s79.23-35.47,79.23-79.23c0-32.09-19.09-59.73-46.54-72.18ZM160.95,94.57c-24.31,11.51-41.83,35.02-44.88,62.89-.01.08-.02.16-.03.24-.19,1.72-.32,3.45-.39,5.2h0s4.97,4.84,4.97,4.84c.1.11.28.1.38-.01l4.51-4.91c.08-1.78.24-3.55.45-5.29,0-.02.01-.05.01-.07,3.17-25.5,20.07-46.73,43.06-56.09,1.11-.46,2.23-.88,3.37-1.27v-9.9c-3.96,1.16-7.78,2.63-11.45,4.37Z"/>
  <path class="cls-3" d="M119.41,232.74h-4.26c1.96,2.39,4.03,4.7,6.2,6.9h4.28l-6.22-6.9ZM266.54,239.64c2.05-2.08,4.01-4.25,5.87-6.5l-5.87,6.5Z"/>
  <path class="cls-5" d="M66.02,232.74h50.08c2.05,2.39,4.21,4.7,6.47,6.9h-56.55s-1.17-2.81,0-6.9Z"/>
  <path class="cls-5" d="M325.51,232.74h-53.26c-2.18,2.39-4.48,4.7-6.89,6.9h60.15s1.24-2.81,0-6.9Z"/>
  <path class="cls-5" d="M295.8,168.2c0,23.56-8,45.26-21.45,62.51-.63.82-1.28,1.63-1.94,2.43l-5.87,6.5h-9.12c2.8-2.46,5.45-5.09,7.94-7.86.33-.35.64-.71.96-1.07,14.68-16.82,23.57-38.82,23.57-62.89,0-52.84-42.84-95.68-95.68-95.68s-95.68,42.84-95.68,95.68c0,28.61,12.56,54.29,32.47,71.82h-5.37l-6.22-6.9h-4.26c-14.41-17.57-23.06-40.05-23.06-64.54,0-56.25,45.6-101.85,101.86-101.85s101.85,45.6,101.85,101.85Z"/>
  <path class="cls-5" d="M274.35,230.71c-.63.82-1.28,1.63-1.94,2.43-1.86,2.25-3.82,4.42-5.87,6.5h-1.18v-7.86c.33-.35.64-.71.96-1.07h8.03Z"/>
  <path class="cls-5" d="M272.41,233.14c-1.86,2.25-3.82,4.42-5.87,6.5l5.87-6.5Z"/>
  <path class="cls-5" d="M125.63,239.64h-4.28c-2.17-2.2-4.24-4.51-6.2-6.9h4.26l6.22,6.9Z"/>
  <path class="cls-5" d="M207.74,267.16c-.99-1.16-2.38-1.74-4.19-1.74s-3.23.58-4.22,1.74c-.98,1.16-1.47,2.74-1.47,4.73s.49,3.54,1.47,4.7c.99,1.16,2.39,1.74,4.22,1.74s3.2-.58,4.19-1.74c.98-1.16,1.47-2.73,1.47-4.7s-.49-3.57-1.47-4.73ZM236.37,265.79c-.45-.44-1.1-.66-1.94-.66h-3.61v4.92h3.61c.87,0,1.53-.2,1.96-.6.44-.39.66-1.01.66-1.86,0-.77-.22-1.37-.68-1.8ZM236.37,265.79c-.45-.44-1.1-.66-1.94-.66h-3.61v4.92h3.61c.87,0,1.53-.2,1.96-.6.44-.39.66-1.01.66-1.86,0-.77-.22-1.37-.68-1.8ZM207.74,267.16c-.99-1.16-2.38-1.74-4.19-1.74s-3.23.58-4.22,1.74c-.98,1.16-1.47,2.74-1.47,4.73s.49,3.54,1.47,4.7c.99,1.16,2.39,1.74,4.22,1.74s3.2-.58,4.19-1.74c.98-1.16,1.47-2.73,1.47-4.7s-.49-3.57-1.47-4.73ZM207.74,267.16c-.99-1.16-2.38-1.74-4.19-1.74s-3.23.58-4.22,1.74c-.98,1.16-1.47,2.74-1.47,4.73s.49,3.54,1.47,4.7c.99,1.16,2.39,1.74,4.22,1.74s3.2-.58,4.19-1.74c.98-1.16,1.47-2.73,1.47-4.7s-.49-3.57-1.47-4.73ZM236.37,265.79c-.45-.44-1.1-.66-1.94-.66h-3.61v4.92h3.61c.87,0,1.53-.2,1.96-.6.44-.39.66-1.01.66-1.86,0-.77-.22-1.37-.68-1.8ZM236.37,265.79c-.45-.44-1.1-.66-1.94-.66h-3.61v4.92h3.61c.87,0,1.53-.2,1.96-.6.44-.39.66-1.01.66-1.86,0-.77-.22-1.37-.68-1.8ZM207.74,267.16c-.99-1.16-2.38-1.74-4.19-1.74s-3.23.58-4.22,1.74c-.98,1.16-1.47,2.74-1.47,4.73s.49,3.54,1.47,4.7c.99,1.16,2.39,1.74,4.22,1.74s3.2-.58,4.19-1.74c.98-1.16,1.47-2.73,1.47-4.7s-.49-3.57-1.47-4.73ZM65.5,250.73v40.84h260.49v-40.84H65.5ZM105.32,286.53h-9.06v-14.47l-4.47,14.47h-7.79l-4.47-14.47v14.47h-9.1v-29.03h11.15l6.4,17.43,6.23-17.43h11.11v29.03ZM128.77,264.76h-10.25v3.57h9.02v6.84h-9.02v4.1h10.25v7.26h-19.35v-29.03h19.35v7.26ZM160.05,286.53h-9.1l-9.63-14.6v14.6h-9.11v-29.03h9.11l9.63,14.84v-14.84h9.1v29.03ZM186.95,264.72h-7.71v21.81h-9.1v-21.81h-7.63v-7.22h24.44v7.22ZM216.45,279.56c-1.33,2.27-3.13,4.05-5.41,5.33-2.29,1.29-4.78,1.93-7.49,1.93s-5.24-.64-7.52-1.93c-2.28-1.28-4.09-3.06-5.43-5.33-1.34-2.27-2.01-4.82-2.01-7.67s.67-5.39,2.01-7.66c1.34-2.27,3.15-4.04,5.43-5.31,2.28-1.27,4.79-1.91,7.52-1.91s5.24.64,7.51,1.91c2.27,1.27,4.06,3.04,5.39,5.31,1.32,2.27,1.99,4.82,1.99,7.66s-.67,5.4-1.99,7.67ZM236.31,286.53l-5.45-10.41h-.04v10.41h-9.1v-29.03h13.53c2.35,0,4.36.42,6.02,1.25,1.67.84,2.92,1.97,3.76,3.41.83,1.43,1.25,3.05,1.25,4.85,0,1.95-.54,3.67-1.62,5.17s-2.63,2.58-4.66,3.24l6.32,11.11h-10.01ZM258.29,286.53h-9.1v-29.03h9.1v29.03ZM290.23,286.53h-9.1l-9.64-14.6v14.6h-9.1v-29.03h9.1l9.64,14.84v-14.84h9.1v29.03ZM321.88,278.86c-1.26,2.16-2.99,4.02-5.21,5.56-2.21,1.54-5.01,2.32-8.4,2.32-3.01,0-5.63-.63-7.85-1.87-2.23-1.24-3.94-2.99-5.13-5.23-1.19-2.24-1.78-4.79-1.78-7.66s.59-5.43,1.78-7.67c1.19-2.24,2.89-3.98,5.11-5.23,2.21-1.24,4.81-1.86,7.79-1.86,3.79,0,6.89.91,9.28,2.74s3.81,4.32,4.25,7.46h-9.6c-.35-.57-.86-1.01-1.52-1.33-.65-.31-1.44-.47-2.37-.47-1.75,0-3.11.57-4.06,1.7-.96,1.14-1.44,2.69-1.44,4.66,0,2.27.54,3.96,1.6,5.08,1.07,1.12,2.71,1.68,4.92,1.68s3.8-.85,5.09-2.54h-7.26v-6.44h14.8v9.1ZM234.43,265.13h-3.61v4.92h3.61c.87,0,1.53-.2,1.96-.6.44-.39.66-1.01.66-1.86,0-.77-.22-1.37-.68-1.8-.45-.44-1.1-.66-1.94-.66ZM203.55,265.42c-1.83,0-3.23.58-4.22,1.74-.98,1.16-1.47,2.74-1.47,4.73s.49,3.54,1.47,4.7c.99,1.16,2.39,1.74,4.22,1.74s3.2-.58,4.19-1.74c.98-1.16,1.47-2.73,1.47-4.7s-.49-3.57-1.47-4.73c-.99-1.16-2.38-1.74-4.19-1.74ZM207.74,267.16c-.99-1.16-2.38-1.74-4.19-1.74s-3.23.58-4.22,1.74c-.98,1.16-1.47,2.74-1.47,4.73s.49,3.54,1.47,4.7c.99,1.16,2.39,1.74,4.22,1.74s3.2-.58,4.19-1.74c.98-1.16,1.47-2.73,1.47-4.7s-.49-3.57-1.47-4.73ZM236.37,265.79c-.45-.44-1.1-.66-1.94-.66h-3.61v4.92h3.61c.87,0,1.53-.2,1.96-.6.44-.39.66-1.01.66-1.86,0-.77-.22-1.37-.68-1.8ZM236.37,265.79c-.45-.44-1.1-.66-1.94-.66h-3.61v4.92h3.61c.87,0,1.53-.2,1.96-.6.44-.39.66-1.01.66-1.86,0-.77-.22-1.37-.68-1.8ZM207.74,267.16c-.99-1.16-2.38-1.74-4.19-1.74s-3.23.58-4.22,1.74c-.98,1.16-1.47,2.74-1.47,4.73s.49,3.54,1.47,4.7c.99,1.16,2.39,1.74,4.22,1.74s3.2-.58,4.19-1.74c.98-1.16,1.47-2.73,1.47-4.7s-.49-3.57-1.47-4.73ZM207.74,267.16c-.99-1.16-2.38-1.74-4.19-1.74s-3.23.58-4.22,1.74c-.98,1.16-1.47,2.74-1.47,4.73s.49,3.54,1.47,4.7c.99,1.16,2.39,1.74,4.22,1.74s3.2-.58,4.19-1.74c.98-1.16,1.47-2.73,1.47-4.7s-.49-3.57-1.47-4.73ZM207.74,267.16c-.99-1.16-2.38-1.74-4.19-1.74s-3.23.58-4.22,1.74c-.98,1.16-1.47,2.74-1.47,4.73s.49,3.54,1.47,4.7c.99,1.16,2.39,1.74,4.22,1.74s3.2-.58,4.19-1.74c.98-1.16,1.47-2.73,1.47-4.7s-.49-3.57-1.47-4.73Z"/>
  <g>
    <path class="cls-5" d="M178.79,32.58v7.22h-7.71v21.81h-9.1v-21.81h-7.63v-7.22h24.44Z"/>
    <path class="cls-5" d="M208.11,32.58v29.03h-9.1v-11.32h-8.65v11.32h-9.1v-29.03h9.1v10.45h8.65v-10.45h9.1Z"/>
    <path class="cls-5" d="M221.31,39.84v3.57h9.02v6.85h-9.02v4.1h10.25v7.26h-19.35v-29.03h19.35v7.26h-10.25Z"/>
  </g>
  <g>
    <path class="cls-5" d="M182.29,301.11v29.03h-9.1v-11.32h-8.65v11.32h-9.1v-29.03h9.1v10.45h8.65v-10.45h9.1Z"/>
    <path class="cls-5" d="M195.28,301.11v16.36c0,1.34.29,2.4.88,3.18s1.54,1.17,2.85,1.17,2.28-.39,2.91-1.17.94-1.84.94-3.18v-16.36h9.06v16.36c0,2.76-.57,5.12-1.72,7.07-1.15,1.96-2.72,3.42-4.71,4.41-2,.98-4.22,1.48-6.68,1.48s-4.64-.49-6.54-1.48c-1.9-.98-3.38-2.45-4.45-4.39-1.07-1.94-1.6-4.3-1.6-7.09v-16.36h9.06Z"/>
    <path class="cls-5" d="M239.38,317.78c.97,1.27,1.46,2.74,1.46,4.41,0,2.54-.84,4.5-2.52,5.88-1.68,1.38-4.09,2.07-7.24,2.07h-15.21v-29.03h14.8c2.95,0,5.28.64,6.97,1.93,1.69,1.29,2.54,3.16,2.54,5.62,0,1.69-.45,3.12-1.33,4.28-.89,1.16-2.07,1.93-3.55,2.32,1.75.41,3.11,1.25,4.08,2.52ZM224.97,312.43h3.53c.82,0,1.43-.16,1.83-.49.4-.33.59-.83.59-1.52s-.2-1.24-.59-1.58c-.4-.34-1-.51-1.83-.51h-3.53v4.1ZM230.93,322.37c.4-.31.59-.83.59-1.54,0-1.39-.81-2.09-2.42-2.09h-4.14v4.1h4.14c.82,0,1.43-.16,1.82-.47Z"/>
  </g>
</svg>